<svg version="1" xmlns="http://www.w3.org/2000/svg" width="13333.333" height="13333.333" viewBox="0 0 10000.000000 10000.000000"><path d="M4900.5 51c-270 4.9-563.2 35.6-830.5 87.1-675.3 130-1310.2 397.8-1875 790.8-958.8 667-1654.4 1655.3-1956.5 2779.6-97.2 361.7-152 725.4-167.1 1110-2.6 63.7-2.7 75.5-2.7 186.5 0 110.9.1 122.9 2.7 186.5 10.2 260.9 38 506.1 85.2 753.5 189.2 990.8 677.5 1899.9 1400.9 2608.6C2189.6 9172.7 2973.3 9609.9 3826 9819c320.4 78.6 645.2 124 983.8 137.7 63.1 2.5 73.3 2.7 190.2 2.7 117 0 127-.2 190.5-2.7 544.1-22 1062.2-127.6 1562.5-318.5C7457.4 9369.4 8094.6 8938 8611.5 8380c603.2-651.1 1020.2-1450.5 1207.5-2314.5 61.9-286 97.6-568.5 109.7-869.2 2.5-63.1 2.6-73.7 2.7-190.8 0-117.6-.2-127.5-2.7-191.3-10.4-258.6-38.2-503.2-85.1-748.7-180.8-947.2-636.3-1822.6-1309.7-2517.1C7972.8 969.7 7282.3 538 6522.5 290.6 6089.8 149.8 5644.7 71 5183.5 53.5c-74-2.8-204.2-4-283-2.5zm517.8 487.9c4.3 1.7 8.5 3.1 9.5 3.1.9 0 5.3 1.4 9.7 3 4.4 1.6 8.7 3 9.5 3 3.2-.1 41.3 13 57 19.5 7.2 3 14.6 5.5 19.3 6.6 2.1.5 6.5 2.3 9.8 3.9 5.6 2.9 29.7 12 31.5 12 1.3 0 14.4 5.5 24.2 10.1 4.5 2.1 8.7 3.9 9.3 3.9 1.6 0 24.3 12.7 39.6 22.2 7.8 4.8 14.5 8.8 14.9 8.8.4 0 4.8 2.6 9.8 5.8 5 3.3 12.5 7.8 16.6 10.2 11.4 6.6 46 28.4 59.3 37.2 6.5 4.3 12.6 8.2 13.5 8.6 1.8.7 21.3 13.5 46.4 30.3 8.1 5.5 15 9.9 15.3 9.9.3 0 3.9 2.4 8 5.4 4 3 12 8.6 17.7 12.4 16.6 11 43.6 29.4 52.3 35.6 14.3 10.1 36.3 25.9 48.3 34.7 6.4 4.7 14.6 10.6 18.2 13 7.3 5.1 38 28.2 45 33.8 2.5 2.1 5.9 4.5 7.5 5.6 1.7 1 7.3 5.3 12.5 9.5s11.1 8.7 13 10c3 2.1 21.9 16.6 50.5 39 28.2 22 86 69.5 110.8 91 6 5.2 11.7 9.9 12.6 10.5.9.5 6.1 5 11.7 10 5.5 4.9 16.3 14.4 23.9 21 32.7 28.4 55 48.2 67.5 60 4.7 4.4 16.4 15.3 26 24.1 33.1 30.4 39 36 73.7 69.6 39.5 38.2 95.6 95.2 133.8 135.8 14.2 15.1 29 30.9 32.9 35 3.9 4.1 14.8 16 24.1 26.5 9.3 10.4 22.8 25.5 30 33.4 21 23.3 27.5 30.7 35.5 40.1 4.1 4.8 16.3 19.1 27 31.6 30.1 35.2 31.7 37.1 44.5 52.9 6.6 8.2 15.4 18.9 19.5 23.8 4.1 4.9 8.5 10.4 9.7 12.1 1.1 1.7 5.8 7.4 10.3 12.6 10.5 12.1 26.9 32.9 50.1 63.5 3.4 4.4 9.2 11.9 13 16.6 3.8 4.8 8.3 10.7 10.1 13.2 1.8 2.5 7.2 9.7 11.9 15.9 4.7 6.2 12.3 16.5 17 22.8 4.6 6.3 13.4 18.1 19.4 26.2 17.6 23.6 29.8 40.4 39.7 54.6 5.1 7.2 13.8 19.6 19.3 27.3 13.7 19.3 24.4 34.8 31.2 44.9 3.1 4.7 8.6 13 12.3 18.5 3.7 5.5 12.4 18.5 19.3 29 6.9 10.4 15.7 23.5 19.5 29 3.8 5.5 9.1 13.6 11.7 18 2.7 4.4 7.9 12.6 11.7 18.2 3.7 5.6 6.8 10.5 6.8 10.9 0 .4 4.9 8.2 10.9 17.3 12.4 19 26.1 41.1 34.6 55.6 3.2 5.5 8.1 13.6 11 18 2.8 4.4 5.5 8.9 5.9 10 .4 1.1 5 9 10.2 17.5 11.7 19.1 28.5 47.6 30 51 .6 1.4 4.9 8.8 9.6 16.5 4.6 7.7 8.7 14.8 9.1 15.9.4 1 4.4 7.9 8.8 15.3 4.5 7.4 10.2 17.4 12.6 22.1 2.5 4.8 7.8 14.5 11.8 21.7 18.5 33.3 31.5 57.7 50 94 7.8 15.4 18.5 36.3 23.8 46.5 11.4 22.2 11.8 23.1 24.4 49 5.5 11.3 14.3 29.3 19.6 40 11.3 23 25.6 53.4 30.1 64 1.8 4.1 7.1 15.8 11.8 26 12.9 27.7 28 62 33.3 75.4 2.6 6.6 6.3 15.3 8.2 19.5 1.9 4.2 5.9 13.4 8.8 20.6 2.9 7.1 8.1 19.3 11.5 27 3.4 7.7 7 16.5 7.9 19.5 1 3 5.9 15.2 10.9 27.1 5.1 11.9 9.2 22.1 9.2 22.6s4.5 11.9 10 25.2c5.5 13.3 10 24.8 10 25.5 0 .7 4.2 12 9.3 25.2 5.2 13.1 10.2 26.4 11.2 29.4s4.8 13.4 8.5 23c7.3 18.9 9.5 25 11.5 32 .7 2.5 4.3 13 8 23.5 9.3 26.3 31.5 92.4 32 95.6.3 1.4 4.6 14.7 9.6 29.5s10.2 30.7 11.4 35.4c1.3 4.7 6.2 20.8 10.9 35.8 4.7 15.1 8.6 28 8.6 28.7 0 .7 3.3 12.1 7.4 25.2 8.1 26 11.2 37 12.1 42.1.3 1.9 5 19.2 10.4 38.5 10.2 36.1 28.3 105.9 30.1 115.7.6 3 2.9 12.5 5.1 21 3.8 14.6 18 77.3 19.3 85.1.3 2 2.8 13.3 5.5 25 2.8 11.8 6.4 28.4 8 36.9 6.1 31.7 10.2 52.3 15.9 80.5 3.3 15.9 6.3 31.7 6.6 35.1.3 3.3 1.7 12.1 3 19.5 11.4 61.6 15.6 85.9 16.7 94.9.6 5.8 4 28.7 7.5 51 6.9 44 11.8 79.3 13.3 96.2.6 5.9 2.4 20.8 4 33 4.3 31.8 15 130.5 16.1 148.3.5 8.2 2.7 36.6 4.9 63 4.8 56.6 10.4 149.6 12.7 210 2.1 55.5 3.1 255.2 1.5 310.1-3 102.2-7 177-14.6 269.9-2.4 30.2-4.9 61.1-5.5 68.5-1.4 18.5-11.3 107.8-15.4 139.5-1.9 14.3-3.7 29.4-4 33.5-1.1 12.4-6.4 50.2-12.6 89.5-3.3 20.4-6.6 42.9-7.4 50-1.7 14.6-3.6 25.6-13 76.5-3.6 19.5-6.8 38.2-7.1 41.5-.4 3.3-2.8 16.8-5.5 30-7.8 38.4-13.6 67.8-17 85.5-1.7 9.1-5.6 27.1-8.5 40-3 12.9-8.2 36.3-11.5 52-7.1 33-15.2 66.4-28.5 118.5-5.2 20.3-9.5 37.5-9.5 38 0 .6-4.3 16.1-9.5 34.5-5.3 18.4-10.2 36.7-11 40.5-.8 3.9-5.5 20.3-10.5 36.4-4.9 16.1-9 29.8-9 30.4 0 3.8-32.4 105.8-56.5 177.7-21.6 64.4-24.6 73.3-32.8 95-3.8 10.2-8.4 22.8-10.2 28-1.8 5.2-7.1 19.2-11.8 31-4.6 11.8-9.1 24-10 27-.9 3.1-5.2 14.2-9.6 24.7-4.4 10.5-8.7 21.2-9.5 23.8-.9 2.5-5.9 15-11.2 27.6-5.2 12.6-9.7 23.7-9.9 24.6-.5 2.6-1.5 5-10 24.3-4.3 9.6-8.5 19.7-9.5 22.5-1 2.7-4.1 10.2-7 16.5-2.9 6.3-7.7 17.5-10.7 25-6.4 15.9-21.6 50.2-31.5 71.5-3.9 8.2-9.2 19.9-11.8 26-11.2 25.8-56.5 118.8-85.6 175.5-26.5 51.9-34.1 66.3-45.1 86.2-5.6 10.4-10.3 19-10.3 19.4 0 .3-3.8 7.2-8.4 15.3-4.6 8.1-10 17.9-11.9 21.7-1.8 3.8-6.7 12.3-10.7 18.9-4 6.6-8 13.6-8.9 15.5-.9 1.9-5.3 9.6-9.8 17.1-4.4 7.4-9.2 15.7-10.6 18.5-1.4 2.7-6.4 11.3-11.1 19.2-4.7 7.8-8.6 14.5-8.6 14.7 0 .3-4 6.9-8.8 14.8-4.9 7.8-10.7 17.3-12.9 21.2-13.6 23.4-38.9 64.6-53.2 86.6-4.2 6.4-11.6 18-16.6 25.9-4.9 7.9-13.9 21.8-20 30.9-6 9.2-11.4 17.4-12 18.3-8.5 13.5-61.1 90.8-71.1 104.4-3.2 4.5-11.3 15.9-17.9 25.4-14.4 20.8-26.3 37.2-39 54-5.2 6.9-14.4 19.2-20.5 27.5-15 20.5-24.5 33.1-37.9 50.3-12.2 15.8-18.4 23.8-30.1 39.2-15.4 20.1-30.5 38.8-52.8 65.5-3.7 4.3-8.3 10-10.2 12.5-5 6.5-34 41.4-49 59-4.1 4.8-9.5 11.1-12 14-11.6 13.7-32.5 37.8-42 48.4-5.8 6.4-14.1 15.7-18.5 20.6-4.4 4.9-12.7 14.1-18.5 20.5-5.8 6.4-13.4 15-17 19-7.9 8.8-36.8 39.8-62.4 67-46.2 49-141.6 143.1-186.9 184.5-29.7 27.1-34.8 31.8-50 45.5-15.2 13.8-28.4 25.6-48.3 43.1-5.6 4.9-15.2 13.4-21.5 18.9-6.3 5.5-21.7 18.6-34.2 29-12.6 10.5-27.9 23.2-34 28.3-16.1 13.3-34.4 28.4-40 32.9-2.6 2.1-10.3 8.3-17.1 13.8-12.1 9.8-28.1 22.5-42.1 33.4-7.9 6.2-68.5 52-74.9 56.6-2.2 1.6-8.6 6.4-14.1 10.5-5.5 4.2-11.3 8.4-13 9.5-1.6 1-9.1 6.4-16.6 11.9-7.5 5.6-19.2 14.1-26 18.9-6.8 4.8-19.5 13.8-28.2 20-8.7 6.2-19.8 13.9-24.8 17.2-19.2 12.9-27.8 18.7-37.9 25.7-5.8 4-11.7 8-13.1 8.8-2.7 1.5-17.1 11-45.3 29.6-8.4 5.6-16.5 10.8-18 11.5-1.4.8-8.6 5.3-15.9 10-19.4 12.7-43.2 27.7-48.5 30.6-2.6 1.4-10.1 6-16.7 10.2-6.6 4.3-12.8 8-13.8 8.4-1 .4-8.4 4.9-16.5 10s-17.2 10.6-20.2 12.2c-3 1.6-11.8 6.5-19.5 11-7.7 4.5-16 9.2-18.5 10.5-2.5 1.2-9.9 5.6-16.6 9.6-6.6 4.1-12.4 7.4-12.7 7.4-.4 0-7.8 4.1-16.4 9.1-8.7 5-17.6 9.9-19.8 10.9-2.2.9-10.5 5.4-18.4 9.9-7.9 4.5-15.9 8.8-17.7 9.6-1.9.8-8.2 4.2-14.1 7.6-6 3.4-19.6 10.7-30.3 16.2s-29.2 14.9-41 21c-24.9 12.8-36.6 18.6-61.5 30.4-9.9 4.6-26.3 12.4-36.5 17.3-36.4 17.5-61.2 29-62.3 29-.6 0-11.3 4.7-23.7 10.5-12.5 5.8-23 10.5-23.3 10.5-.3 0-10.7 4.5-23.1 10-12.3 5.5-22.9 10-23.5 10-.6 0-9.9 3.9-20.8 8.6-10.9 4.7-23.2 9.9-27.3 11.4-4.1 1.6-16.3 6.4-27 10.8s-23.5 9.4-28.5 11.2c-4.9 1.8-17.5 6.5-28 10.6-19 7.3-54.4 20.3-68.5 25.1-4.1 1.4-19.9 7-35 12.3-32.9 11.7-80.5 27.7-87.5 29.5-2.8.7-15.9 4.9-29 9.3-13.2 4.4-27.8 9-32.5 10.2-4.7 1.2-22.4 6.4-39.5 11.5-32.3 9.8-91.1 26.2-107.5 30-5.2 1.2-15.6 3.8-23 5.8-15.9 4.3-59 14.6-74 17.7-5.8 1.2-17.5 3.9-26 6-20.1 5-47.3 11-50 11-1.2 0-17.5 3.3-36.3 7.4-18.8 4.1-40.9 8.6-49.2 10.1-8.2 1.4-29.8 5.3-48 8.6-32 5.9-49.7 8.7-113.5 18.4-36 5.4-102.1 14.1-117 15.4-5.8.5-34.8 3.5-64.6 6.5-46.3 4.8-65.4 6.4-116.4 10.2-4.1.3-9.1.7-11 .9-6.1.6-43.7 2.4-98.5 4.7-46.5 2-65.6 2.3-156.5 2.2-82.7 0-110.4-.4-138-1.7-19-1-48-2.2-64.5-2.7s-31.8-1.2-34-1.5c-2.2-.2-10.7-.9-19-1.5-8.2-.5-17.9-1.2-21.5-1.5-3.6-.3-15.5-1.2-26.5-2-18.6-1.4-82.7-7.7-113.5-11.1-7.4-.8-17.8-1.9-23-2.4-5.2-.5-16.7-2.3-25.5-3.9-8.8-1.7-27-5.1-40.5-7.5-13.5-2.5-29.5-5.9-35.7-7.6-16.3-4.3-50.9-18.2-49.8-19.9 1.1-1.9 60.6-3.8 63-2.1.6.4 5.1.3 10-.1 14.2-1.2 48.1-3.8 58-4.4 24.2-1.6 174.5-6.5 199.5-6.6 58.9-.1 129.4-4.7 191.6-12.5 43.1-5.4 66.4-9.6 94.4-16.9 21.4-5.6 26.5-7 43.5-12.7 5-1.7 13.1-4.1 18-5.4 9.4-2.4 36.5-10.8 40-12.3 4.4-1.9 20.2-7.1 23.4-7.6 1.8-.3 6.8-1.9 11-3.5 10.6-4.1 27.6-10.1 47.6-17 9.4-3.3 23.5-8.4 31.5-11.5 8-3.1 16.8-6.5 19.5-7.5 2.8-1.1 12-4.7 20.5-8 8.5-3.4 22.3-8.8 30.5-12 8.3-3.2 20.9-8.3 28-11.5 7.2-3.1 17.7-7.6 23.5-10 5.8-2.3 16.8-7.1 24.5-10.5 7.7-3.4 17.4-7.6 21.5-9.2 4.1-1.6 14-6.1 22-10 8-3.9 20.1-9.7 27-12.8 30.4-14 93-44.7 111.6-54.8 1-.6 7-3.6 13.2-6.7 6.2-3.1 13.6-7 16.5-8.7 2.8-1.6 10.8-5.9 17.7-9.4 6.9-3.6 15.4-8.3 19-10.5 3.6-2.2 11.3-6.4 17.2-9.4 11.5-5.9 44.9-24.9 58.5-33.4 4.6-2.8 8.5-5.1 8.8-5.1.3 0 7.5-4.3 16.1-9.5 8.5-5.2 15.9-9.5 16.3-9.5.4 0 6.5-3.7 13.7-8.2 7.1-4.4 16.8-10.5 21.5-13.3 4.8-2.9 12.2-7.7 16.5-10.5 4.4-2.9 13-8.4 19.3-12.2 15.2-9.2 23.2-14.4 63.9-41.4 51-34 65.1-43.5 72.3-49.1 3.5-2.7 9.3-6.9 12.9-9.3 3.6-2.4 10.1-7.1 14.5-10.4 4.4-3.4 10.3-7.6 13-9.5 2.8-1.9 9.7-6.9 15.5-11.2 5.8-4.3 13.3-9.7 16.7-12.1 3.4-2.4 13-9.6 21.5-16 8.4-6.5 18-13.8 21.3-16.3 3.3-2.5 11-8.3 17-13 6.1-4.6 15.1-11.4 20-15.1 5-3.7 9.2-7.1 9.5-7.4.3-.3 3.9-3.3 8-6.5 4.1-3.3 11.6-9.3 16.6-13.5 5-4.1 14.6-12 21.3-17.5 23.9-19.4 43.7-36 51.6-43 4.4-3.9 10.7-9.3 14-12 3.3-2.8 8.5-7.3 11.6-10 3.1-2.8 11.6-10.2 18.9-16.5 12.9-11.1 48.5-43.4 75.5-68.4 13-12.1 31.6-30 66.8-64.6 23.3-22.8 88.5-90.3 106.7-110.5 7.4-8.2 16.7-18.3 20.5-22.5 13.5-14.7 30.3-33.6 39.6-44.6 5.2-6.1 16.6-19.6 25.4-30 36.7-43.5 43.2-51.4 63.4-77.2 2.5-3.2 7.9-10 12.1-15.2 7.6-9.4 16.4-21.1 35.6-47 26.8-36.1 34.7-46.9 44.6-61.1 37.7-53.9 43.4-62.3 59.8-87.9 6.2-9.6 15.2-23.6 20-31 8.6-13.2 13.7-21.6 39.2-64.5 14.2-24 29-50 33.8-59.5 1.8-3.5 6-11.2 9.3-17 3.4-5.8 8.7-15.5 11.9-21.5 8.6-16.2 48.1-95.9 51.6-104 4.9-11.3 10.6-24.1 16.7-37.5 5.8-12.6 16.9-39.2 27.5-66 3.1-8 8.1-20.4 11-27.5 4.7-11.5 10-26.1 25.5-70.6 2.4-6.9 5.5-16.6 6.9-21.5 1.4-4.9 4.8-15.9 7.6-24.4 2.9-8.5 5.3-17.8 5.4-20.5.2-2.8 1.7-9.7 3.5-15.4 1.7-5.7 3.3-11.4 3.5-12.5.2-1.2 2.5-9.1 5-17.7s4.6-16.6 4.6-17.9c0-1.2 2.2-10.8 4.9-21.3 2.7-10.6 5.5-22.4 6.2-26.2 1.3-7.5 6.9-33.8 9.5-44.3.8-3.5 1.4-6.5 1.2-6.6-.5-.4-12.2-2.9-15.3-3.2-5.8-.7-7.8-1.5-6.7-2.6.9-.9 7.5 0 19.8 2.7 2.4.5 2 2.1 7.7-29.7l1.4-7.6-8.6-1.3c-12.5-1.8-12.8-3.3-.6-2.5l10.1.7.2-3.8c.2-2.1 1.1-9.9 2.2-17.3 2.6-17.7 6.2-52.3 6.2-58 0-2.5.6-12.8 1.4-23 .8-10.2 1.4-21.3 1.4-24.7 0-3.5.4-6.3 1-6.3 2 0-.2-74.1-2.4-80-.3-.8-.7-8.9-1-17.9-.3-9.1-1.2-21.7-2.1-28-1.6-12.1-5.7-44.4-7.5-59.1-2-15.9-6.2-43.5-7-46-.5-1.4-1.4-6.1-2.1-10.5-.6-4.4-1.7-8.9-2.4-10-.6-1.1-2-5.4-3-9.5s-2.3-8.6-3-10c-.7-1.4-1.7-4.8-2.4-7.5-.7-2.8-1.9-6.5-2.7-8.3-.9-1.8-1.7-5-1.9-7-.2-2-2-8.2-4.1-13.7-2-5.5-5-13.5-6.5-17.8-1.6-4.2-3.7-9.4-4.8-11.5-3-5.5-9.1-21.9-9.1-24.2 0-2.6-6.6-15.5-9.4-18.3-1.1-1.2-3.9-5.2-6.1-8.9-2.2-3.7-4.4-6.8-5-6.8-.5 0-2.1-1.7-3.4-3.8-8.3-12.7-9.7-14.7-10.3-15-.5-.2-.8-.8-.8-1.2 0-.5-2.4-4.9-5.3-9.7-2.9-4.8-7.7-13.3-10.6-18.8-3-5.5-6.3-11.3-7.5-13-1.2-1.6-2.5-3.7-3.1-4.7-5.1-8.8-13.1-21-14-21.6-.7-.4-1.9-2.1-2.8-3.7-.8-1.7-3.6-5.1-6.1-7.8-2.7-2.7-4.6-5.7-4.6-7 0-1.2-1.7-5-3.7-8.5-13-21.5-37.4-60.4-40.7-64.7-.9-1.1-4.3-6.3-7.7-11.5-3.4-5.2-6.5-9.7-7-9.8-.5-.2-.9-.9-.9-1.4 0-1.3-8.6-15.4-11.1-18.3-4.7-5.2-8.6-10.4-10.4-13.8-1.1-2-2.5-3.7-3.2-3.7-.6 0-2-1.3-3-3-.9-1.6-2.5-3-3.5-3s-1.8-.6-1.8-1.4c0-.7-1.3-2.7-2.9-4.2-1.5-1.6-5.6-7.5-8.9-13.1-3.3-5.5-8.4-13.6-11.2-18-2.9-4.3-8-12.3-11.3-17.8-3.3-5.5-7.7-12.5-9.7-15.5-2.1-3-5.4-8.8-7.5-12.7-2.1-4-5.2-8.9-7-10.9-1.8-1.9-5.8-7.8-9-13s-6.2-9.4-6.5-9.4c-.8 0-12.2-16.7-18-26.5-7-11.8-7.4-12.4-9.1-12.8-.9-.3-4-3.9-6.8-8.1-2.8-4.1-6.9-9.5-9.1-11.8-3.5-3.9-29.6-36.1-34.5-42.7-1.1-1.5-4.7-6-8-10-3.3-4.1-7.1-8.8-8.5-10.6-1.4-1.7-6.5-7.8-11.5-13.5-15.6-17.9-22.8-26.3-28.5-33-8.1-9.6-21.3-24.4-29.9-33.5-4.2-4.5-13-13.9-19.6-21-27.5-29.8-94.4-96.5-119-118.6-3.3-3-9.6-8.8-14-13-17.3-16.3-25.6-23.8-37.4-33.9-6.7-5.8-16.8-14.6-22.4-19.5-5.6-5-11.6-10.2-13.4-11.5-1.7-1.4-6.7-5.7-11.1-9.5-14.9-13.2-29.4-24.7-37.1-29.5-4.2-2.6-13.4-8.4-20.6-12.8-7.1-4.4-20.3-12.6-29.2-18.2-8.9-5.6-16.4-10.1-16.7-10.1-.4.1-3.9-2.1-7.9-4.7-3.9-2.7-13-8.4-20.1-12.7-7.2-4.2-17.1-10.3-22-13.4-5-3.2-11.6-7.1-14.6-8.8-5.5-2.9-24.3-14.1-43.5-25.6-5.5-3.3-14.5-8.6-20-11.7-5.5-3.1-15.6-9-22.5-13.2-6.9-4.1-14.1-8.3-16-9.3-1.9-1-11-6.2-20.1-11.6-9.2-5.5-16.9-9.9-17.2-9.9-.4 0-7.5-4.1-15.9-9.1-8.3-5-15.9-9.4-16.7-9.7-.9-.3-6.5-3.5-12.6-7.2-6-3.7-15.3-8.9-20.5-11.7-5.2-2.7-14.4-7.9-20.5-11.5-6-3.6-13.5-7.8-16.5-9.3-3-1.5-11.6-6.3-19-10.6-7.5-4.3-14.4-8.1-15.5-8.5-1.1-.4-6.9-3.7-13-7.2-6-3.5-15.4-8.6-20.7-11.3-5.4-2.7-17.4-9.2-26.7-14.4-9.4-5.2-17.4-9.5-17.7-9.5-.4 0-6.6-3.3-13.8-7.4-7.2-4.1-17.8-9.9-23.6-12.9-5.8-3-13-6.9-16-8.7-3-1.7-10.8-5.9-17.5-9.2-6.6-3.3-14.9-7.7-18.5-9.8-3.6-2.1-14.1-7.7-23.5-12.5-9.3-4.8-17.5-9.1-18-9.5-1.1-.9-11.5-6.3-56-29-14.3-7.3-27.1-14.1-28.4-15.1-1.3-1.1-2.8-1.9-3.3-1.9-1 0-61.1-29.8-76.8-38.2-8.8-4.6-13.5-6.7-17-7.2-.3-.1-9.3-4.5-20-9.8-21.8-10.9-57.9-28.5-63.1-30.8-1.9-.9-9.7-4.7-17.4-8.7-32-16.2-89-43.9-103.7-50.3-5.4-2.4-9.8-4.7-9.8-5.2s-1.1-1.3-2.5-1.8-2.5-1.4-2.5-1.9c0-1.4-3.4-3.1-19.1-9.5-22.9-9.3-58.6-24.9-77.9-34.1-17.1-8.1-26.7-12.7-77.5-37.5-47.4-23.1-63.5-30.9-63.5-30.5 0 .3-8.5-3.7-18.8-8.8-10.4-5-26-12.5-34.8-16.5-29.7-13.7-31.4-14.6-31.4-15.7 0-.6-9.1-5.5-20.2-10.9-11.2-5.4-28.4-13.8-38.3-18.7-9.9-4.8-30.8-15-46.5-22.5-15.7-7.6-33.4-16.5-39.5-19.7-6-3.3-13.8-7.3-17.2-8.9-3.5-1.5-8.6-4.3-11.5-6.2-2.9-1.8-12.5-7.1-21.3-11.8-8.8-4.7-21.4-11.5-27.9-15.1-6.6-3.7-12.1-6.7-12.3-6.7-.2 0-5.8-3.1-12.6-6.9-6.7-3.7-16-8.8-20.7-11.3-4.7-2.5-12.3-6.7-17-9.3-16.9-9.5-32.4-17.5-33.5-17.2-.6.1-6.7-3.2-13.6-7.3-28.4-17.3-34.7-21-35.9-21-1 0-21-11-33-18-12.6-7.4-24.4-14.5-32.5-19.5-5.5-3.4-12.6-7.6-15.8-9.4-3.1-1.7-10.2-6.1-15.7-9.7-5.5-3.5-13.5-8.3-17.8-10.6-4.2-2.2-8.4-4.6-9.2-5.3-.8-.7-8.2-5.2-16.5-10-22.9-13.5-26.5-15.9-26.5-17.6 0-2.1-.8-2.7-9.3-7.3-6.7-3.6-13.1-7.5-23.4-14.2-2.8-1.9-7.9-4.9-11.1-6.7-3.3-1.7-11.3-6.5-17.9-10.5-6.5-4-17.2-10.5-23.8-14.4-6.6-3.9-12.7-7.6-13.5-8.3-.8-.7-5.1-3.2-9.5-5.5-4.4-2.4-8.7-4.8-9.5-5.5-1.9-1.5-29.9-18.5-30.5-18.5-.3 0-5.8-3.3-12.2-7.4-6.5-4-13.8-8.3-16.3-9.6-2.5-1.2-6.3-3.5-8.5-5-3.8-2.6-19.8-12.2-31-18.5-2.7-1.6-5.2-3.1-5.5-3.5-.5-.6-14.1-8.8-28.4-17.1-3.2-1.9-6.9-4.1-8.1-4.9-4.6-3-16.1-9.8-21-12.5-2.7-1.6-7.5-4.5-10.5-6.5-9.2-6.1-22.4-13.8-27.3-15.9-2.6-1.1-9.7-5.3-15.9-9.2-6.1-4-12.9-7.9-15-8.7-2.9-1.1-3.8-2.1-3.8-3.9 0-1.6.6-2.3 1.8-2.3 1.6 0 25.5 8.6 48.4 17.4 3.7 1.4 13.6 4.8 21.9 7.6 16.1 5.4 33.7 11.9 39.1 14.4 5 2.3 21.8 8.6 23 8.6.6 0 11.1 3.8 23.3 8.5 12.3 4.7 26.7 10 32.1 11.8 5.5 1.8 19.6 6.9 31.4 11.4 11.8 4.4 24.2 9 27.5 10.1 3.3 1.2 15.4 5.7 26.9 10.2 11.5 4.4 21.4 8 21.9 8 .6 0 12.5 4.3 26.6 9.6 14.1 5.4 27.2 10.1 29.1 10.7 1.9.5 12.7 4.4 24 8.7 11.3 4.2 23.7 8.7 27.5 10 3.9 1.2 13.5 4.7 21.5 7.7 8 3.1 22.2 8.1 31.5 11.3 18.8 6.4 40.5 14.3 50.5 18.4 3.6 1.5 8.5 3.4 11 4.3 2.5.8 11.7 5.2 20.5 9.6 8.8 4.4 18.7 9 22 10.2 3.3 1.3 14.6 6.3 25 11.2 10.5 5 23.5 11.1 29 13.5 5.5 2.5 15.6 7.2 22.5 10.3 42.1 19.4 50.1 23 55.5 25 3.3 1.2 14.4 6.1 24.7 10.9 10.2 4.7 19.1 8.6 19.6 8.6s7.2 2.9 14.8 6.4c7.7 3.4 19.1 8.5 25.4 11.1 6.3 2.7 21.1 9 32.8 14.2 11.8 5.1 21.8 9.3 22.3 9.3s11.1 4.5 23.6 10.1c12.6 5.6 23.6 10.3 24.6 10.5 1 .1 6.1 2.3 11.5 4.7 13.4 6.2 35.9 15.7 36.9 15.7.5 0 9.6 3.8 20.3 8.4 10.7 4.6 22.7 9.5 26.5 10.9 3.9 1.4 14.4 5.8 23.5 9.7 9.1 4 20.6 8.8 25.5 10.6 8.2 2.9 25.6 9.9 63.5 25.1 7.4 3 20.7 8.2 29.5 11.4 17.5 6.6 49.1 18.7 88.5 34 14 5.4 27.5 10.5 30 11.3 2.5.8 13.8 5 25.2 9.4 11.3 4.4 22.6 8.6 25 9.3 2.3.7 15.4 5.4 28.9 10.6 13.5 5.1 25 9.3 25.6 9.3.6 0 10.2 3.4 21.4 7.6 11.2 4.2 24.7 9 29.9 10.7 5.2 1.6 19.9 6.7 32.5 11.3 34.6 12.5 88.9 30.3 92.1 30.2 1.6 0 7.9 1.6 13.9 3.5 6.1 1.8 22.5 6.9 36.5 11.1 54.6 16.6 77.3 23.8 78 24.8.3.4 5 1.6 10.5 2.8 14.1 2.9 23 5.6 22.8 6.8-.3 1.3 1 1.7 25.7 7.8 44 10.8 55.6 13.8 56.5 14.4.6.4 10.7 3.1 22.5 5.9 35.1 8.4 45.4 11 67 16.7 11.3 3 25.5 6.5 31.5 7.7 6.1 1.3 15.7 3.6 21.5 5 15.4 3.9 57.6 14.2 72 17.7 6.9 1.6 17.2 4.3 23 5.8 5.8 1.6 18.4 5.1 28 7.7 9.6 2.6 31.5 8.5 48.5 13.2 17.1 4.7 36.2 9.5 42.5 10.8 6.3 1.3 22.5 5.1 36 8.4 33.7 8.2 73.1 15.3 140 25.1 11.3 1.7 21.2 3.3 22 3.5 2.2.6 17.9 2.5 30 3.5 5.8.5 22.7 2.7 37.5 4.9 14.9 2.2 38.5 5.1 52.5 6.5 27.4 2.7 29.9 2.9 58 5.1 28.3 2.1 44.5 3.4 68.1 5.6 17.5 1.5 30.2 1.9 65.5 1.9 24.2 0 45.3-.4 47-.9 1.7-.5 14.3-1.2 28-1.5 45.2-1.2 52.6-1.7 80.4-5.3 15.1-1.9 32.5-3.7 38.5-3.9 16.1-.4 75.6-8.6 120.5-16.5 39.2-7 100.5-20.6 130.5-29.2 7.7-2.1 19.9-5.4 27-7.2 7.2-1.8 23.8-6.7 37-10.9s30.5-9.7 38.5-12.2 22.4-7.5 32-11.1c9.6-3.6 18.2-6.6 19.2-6.8 2.1-.4 15.4-5.7 34.3-13.5 7.7-3.2 17.6-7.2 22-9 7.3-2.9 22.3-9.6 48.5-21.5 27.3-12.5 75.4-36.9 91.3-46.3 4.9-2.9 12-6.8 15.8-8.8 3.9-1.9 13.2-7.2 20.7-11.8 7.5-4.5 16.9-10 20.7-12.1 3.9-2.1 10.2-6 14.2-8.6 3.9-2.7 9.3-6.1 12-7.5 6-3.4 41.3-26.9 50.8-33.9 3.9-2.8 7.7-5.4 8.6-5.7 1.5-.6 9.7-6.6 44.4-32.7 61-45.8 123.3-101.1 174.9-155 8.3-8.6 15.3-15.7 15.7-15.9.4-.2 9.5-10.1 20.3-22.1 22.6-25.2 51.1-59.1 67.6-80.4 6.3-8.2 13.5-17.4 16-20.5 2.5-3.2 6.5-8.6 9-12 2.5-3.5 8.2-11.2 12.8-17.3 15.4-20.3 63.9-93.3 71.3-107.3 1.1-2.1 4.9-8.4 8.4-14.1 13.3-21.5 52.3-91.9 53-95.6.2-1.1 2.9-6.3 5.9-11.6 3-5.4 7.2-13.6 9.4-18.3 2.2-4.7 8.3-17.5 13.6-28.5 5.2-11 10.2-21.8 11-24 .7-2.2 4.8-11.5 9-20.6 4.2-9.2 7.6-17.1 7.6-17.7 0-.5 3.3-9 7.4-18.9 9.2-22.5 13.6-33.7 17.1-43.8 1.5-4.4 4.5-12.5 6.7-18 5.4-13.6 10.5-27.7 12.7-35.5 1.1-3.6 5.4-16.4 9.6-28.5 4.2-12.1 8.7-26.1 10-31 1.4-5 6.3-21.6 11-37 4.6-15.4 8.9-30.3 9.4-33 .5-2.8 4.1-16.7 7.9-31 3.8-14.3 8.2-31.6 9.6-38.5 1.5-6.9 4.3-19.5 6.2-28 6.9-31.5 14.3-67.7 15.4-76 .7-4.7 2.7-17.3 4.6-28 3.8-22.3 11-68.8 11.8-77 .3-3 1.9-17.4 3.6-32 21.9-195.7 22.1-371 .5-581.5-7.6-73.4-19.8-156.1-33.1-223.7-3.5-18-6.4-33.7-6.4-35 0-1.3-3.6-18.3-7.9-37.8-9.2-40.9-11.2-50.2-14.7-66-1.4-6.3-5.8-24.3-9.9-40-4-15.7-7.6-30.3-8-32.5-.4-2.2-4.5-17.3-9.1-33.5-4.7-16.2-9.2-32.4-10-36-1.6-6.9-15.9-54.6-27.6-92-17.5-55.8-34.3-105.7-46.5-138-3.8-10.2-7.3-19.8-7.7-21.4-.4-1.5-4.8-13-9.8-25.5-4.9-12.4-9.7-24.8-10.5-27.4-.8-2.7-5.3-13.9-10-25-4.6-11.1-8.6-20.9-8.8-21.8-.5-2.5-8.2-21.1-14.7-35.3-3.2-7.1-5.8-13.3-5.8-13.9 0-.5-4.2-10.5-9.4-22.1-5.2-11.6-10.7-24.3-12.4-28.1-1.7-3.9-5.6-12.6-8.7-19.5-3.1-6.9-7.9-17.7-10.7-24-2.7-6.3-7.8-17.4-11.3-24.5-3.4-7.2-7.9-16.8-10-21.5-2-4.7-6.8-14.5-10.6-21.9-3.8-7.3-6.9-13.8-6.9-14.3s-4.6-9.7-10.2-20.5-10.3-20.2-10.4-20.9c-.1-.7-4-8.2-8.5-16.6-4.6-8.4-10.2-19.1-12.5-23.8-2.3-4.7-6.5-12.8-9.4-18-2.9-5.2-6.7-12.2-8.3-15.5-1.6-3.3-6.7-12.6-11.2-20.6-4.6-8-10.1-18.2-12.3-22.5-2.2-4.4-7.1-13.4-11-19.9-3.8-6.6-8.1-14.4-9.6-17.2-1.4-2.9-6-10.9-10.1-17.8-4.1-7-7.5-12.9-7.5-13.2 0-.3-4.2-7.6-9.4-16.2-5.1-8.6-11.4-19-13.8-23.1-11.9-20-25.4-42-29.7-48.4-2.6-3.9-5.6-8.7-6.6-10.6-2.8-5.7-47.2-74.8-65.8-102.5-36.9-55-41.8-62.1-73.1-105.3-9.9-13.6-20-27.6-22.6-31.2-2.6-3.6-12.1-16.4-21.1-28.4-9-12.1-19.1-25.6-22.4-30.1-3.3-4.4-8.2-11-11-14.5-21.8-27.8-52.9-66.9-68.5-86-5.6-6.9-12.7-15.7-15.8-19.5-3.1-3.9-13.8-16.5-23.7-28-9.9-11.6-20.2-23.8-22.9-27-2.8-3.3-7.3-8.5-10-11.5-2.8-3.1-10.7-12.1-17.6-20-6.9-7.9-18.8-21.4-26.5-29.8-7.7-8.5-16.9-18.6-20.4-22.6-32.8-36.6-127.7-133.5-169.7-173.1-33.2-31.4-53.3-50-73.9-68.5-7.7-6.9-16.4-14.8-19.5-17.6-3-2.7-8.6-7.7-12.5-11-3.8-3.2-10.9-9.3-15.6-13.4-19.7-17.2-28.9-25.1-37.9-32.6-5.2-4.4-16.8-14-25.6-21.4-15.4-12.8-31.8-26.2-44.4-36-3.2-2.5-10.5-8.3-16.4-13-44.4-35.3-85.6-66.3-129.1-96.9-27.9-19.7-50.4-36.5-53.5-40.1-1.6-1.8-12.8-11-13.4-11-1 0-9.7-9.6-15-16.6-6.1-8.2-18.8-23.5-27.2-33-7.2-8.2-13.4-16.6-13.4-18.2 0-.5-4.2-5.9-9.4-11.9-5.1-6-9.5-11.4-9.7-12.1-.6-1.9-23-27.2-24-27.2-.5 0-.9-.6-.9-1.4 0-1.7 6-.2 17.3 4.3zM5876 2951c29.8 2.5 39.2 3.4 58 5.6 31.1 3.7 55.2 7.2 69 10.3 2.5.5 9 1.4 14.5 2 5.5.6 11.4 1.6 13 2.1 1.7.5 9.1 2.3 16.5 3.9 25.2 5.6 35.8 8.1 40.2 9.5 2.4.8 12.6 3.5 22.8 6 10.2 2.4 20.8 5.3 23.5 6.4 2.8 1.1 8.6 3 13 4.2 4.4 1.2 8.5 2.6 9 3 .6.4 6.7 2.4 13.6 4.4 12 3.4 16.5 5 23.4 8.1 1.7.7 5.8 2.3 9.3 3.4 3.5 1.2 7.1 2.6 8 3.1.9.6 6.4 2.6 12.1 4.6 9.3 3.2 18.8 7.1 33.6 13.9 2.8 1.3 9.5 4.1 15 6.3s17.4 7.7 26.4 12.2c9 4.5 18.8 9.2 21.8 10.5 3 1.4 10.4 5.3 16.6 8.8 6.2 3.6 15.3 8.6 20.2 11.1 5 2.6 11.3 6.1 14.2 7.9 2.9 1.8 8.9 5.4 13.5 8.1 14 8.3 45.9 29 57.8 37.6 3 2.1 6.9 4.7 8.5 5.6 1.7.9 7.2 4.9 12.3 8.8 5.1 3.9 12.6 9.6 16.6 12.6 17.8 13.3 30.4 23.1 34.1 26.5 2.2 2.1 7.2 6.3 11 9.3 9.2 7.3 20.9 17.6 31.9 28.2 4.9 4.7 9.9 9.4 11.1 10.5 31.1 28.5 81.4 84.1 106 117 3.2 4.4 8.2 10.9 11.1 14.5 2.8 3.6 7.8 10.3 11 15 3.2 4.7 7.5 11 9.6 14 2.1 3 7.2 10.7 11.4 17 4.2 6.3 8.5 12.6 9.5 14 1 1.4 4.2 6.5 7 11.5 2.8 4.9 6 10.5 7.2 12.3 1.2 1.8 3.6 5.5 5.4 8.1 1.7 2.6 5.2 8.8 7.7 13.7 2.5 4.9 5.8 11.1 7.4 13.9 9.1 15.8 12.9 23 22 41.7 5.6 11.4 10.2 21 10.2 21.4 0 .3 2.1 5 4.6 10.3 6.4 13.4 6.8 14.4 11.5 25.5 2.2 5.5 4.2 10.7 4.4 11.6.2 1 .8 2.6 1.4 3.6 4.1 7.5 24.5 65.2 27.6 78.4.3 1.1 5.8 19 8.6 28 2.8 8.9 9.9 39.3 15.4 66 1.3 6.3 3.1 14.4 3.9 18 .8 3.6 2 10.1 2.6 14.5.6 4.4 1.8 11.6 2.6 16s2.5 18.3 3.9 31c1.4 12.6 3 25.2 3.5 28 .5 2.7 1.7 16.7 2.6 31 3.3 50.1 1.9 137.2-2.6 170.5-.6 4.1-2.6 20.3-4.5 36-4 33.2-5.9 45.8-8 55.5-.9 3.8-2.6 12.6-4 19.5-2.7 14.1-8.3 39-12.5 55.5-9.8 39-30.8 104.5-39.1 122-.5 1.1-1.5 4-2.3 6.5-4.9 15.5-27.6 65.9-46.2 102.5-12.5 24.7-16.3 31.7-24 44.5-1.8 3-5.2 9.1-7.4 13.4-2.3 4.3-5.6 10-7.3 12.6-1.8 2.6-6.1 9.5-9.7 15.4-35 57.5-84.2 122.6-129 170.4-6.9 7.4-15.4 16.6-19 20.6-12.7 14.2-57.3 57.1-74.4 71.4-2.8 2.4-7.3 6.5-10.1 9.1-2.7 2.6-10.6 9.2-17.5 14.6-6.9 5.5-14.6 11.8-17.2 14-7.9 6.7-25.2 20-34.3 26.3-3.3 2.3-8.2 6-11 8.2-4.5 3.6-18.4 13.3-37.5 26-3.6 2.4-10.2 6.8-14.8 9.9-12.8 8.7-19.4 12.9-22.7 14.4-1.6.8-7.9 4.5-14 8.2-6 3.8-13 8-15.5 9.4-2.5 1.3-4.7 2.8-5 3.1-.3.4-5.9 3.5-12.5 7-6.6 3.4-16.9 8.9-23 12.1-22.4 12-79.7 39.7-83.4 40.4-1.6.3-5.2 1.6-7.9 3-2.8 1.4-5.3 2.5-5.6 2.5-.4 0-4.1 1.6-8.2 3.5s-7.7 3.5-8 3.5c-.3 0-3.9 1.6-8.1 3.6-4.1 1.9-9 3.8-10.7 4.1-1.7.3-3.5.9-4.1 1.3-.5.4-4.8 2-9.5 3.5s-8.9 3.1-9.5 3.5c-.5.4-3.5 1.5-6.5 2.5s-7.7 2.8-10.5 4.1c-2.7 1.2-11.5 4.1-19.5 6.4-8 2.3-21.2 6.4-29.5 9.2-8.2 2.7-24.2 7.2-35.4 9.9-11.3 2.8-21.2 5.4-22 5.9-.9.4-8.1 2.2-16.1 4-8 1.7-20.6 4.5-28 6.1-7.4 1.6-20.7 4.1-29.5 5.4-8.8 1.4-17.8 2.9-20 3.5-7.8 1.8-30.2 4.9-50.5 7-11.3 1.1-22.1 2.5-24.2 3-2 .6-17.7 2-35 3.1-45.3 3-119.6 3-163.3 0-17-1.2-32.3-2.6-34-3.1-1.6-.5-12.2-1.8-23.5-3s-27-3.2-35-4.6c-40.7-6.7-56.5-9.5-66.5-11.8-45-10.4-79.1-19.4-100-26.4-9.9-3.3-20.9-6.8-24.5-7.8-5.7-1.5-29.2-10.2-37.5-13.9-1.6-.7-6.1-2.3-10-3.5-3.8-1.3-7.4-2.7-7.9-3.2-.6-.4-1.7-.8-2.5-.8-1.3 0-11.8-4.5-25.7-11.1-3.3-1.6-6.4-2.9-6.8-2.9-.4 0-3.6-1.4-7.1-3-3.5-1.7-6.8-3-7.3-3s-9.8-4.5-20.7-10c-11-5.5-20.3-10-20.7-10-.4 0-5.4-2.6-11-5.7-5.7-3.1-11.9-6.5-13.8-7.5-1.9-1-4.2-2.2-5-2.8-.8-.6-5.5-3.1-10.5-5.6-4.9-2.5-10.6-5.6-12.5-6.8-12.1-7.8-15-9.6-18.6-11.4-5.2-2.6-37.1-23.1-45.4-29.1-3.6-2.5-11-7.6-16.5-11.3-5.5-3.7-12.7-8.8-16-11.5-3.3-2.6-8.5-6.6-11.5-8.7-5.8-4.1-34.2-26.9-44.7-35.8-3.3-2.9-8.5-7.3-11.5-9.6-6.5-5.4-36.6-33.1-46.2-42.7-12.5-12.5-42.9-44.8-50.6-53.9-15.7-18.6-22.3-26.2-24.1-27.8-1.1-.9-1.9-1.9-1.9-2.3 0-.3-4.2-5.9-9.3-12.3-25.6-32.1-52.8-71.4-72.1-104.2-2.4-4.1-5.4-9.1-6.7-11-3.1-4.9-10.1-17.5-16.9-30.5-3.1-6-6.7-12.6-7.9-14.5-1.1-1.9-4.4-8.2-7.2-14-17.6-36-22.8-46.9-23.9-50.5-.7-2.2-1.6-4.5-2-5-.4-.6-1.7-3.5-2.8-6.5-2-5.3-8.6-20.9-11.9-27.9-.8-1.9-3.5-9.3-5.9-16.5-2.4-7.2-6.2-18.1-8.4-24.1-4.8-12.8-7.5-21.2-12.3-38.5-1.9-6.9-5.6-19.8-8.1-28.8-6.8-23.9-12.5-50.6-20.2-94.2-5.6-32-8.9-60.2-11.4-98-2-28.8-2.2-38.2-1.7-83 .5-53.6 2.5-87.9 6.8-118.5 1.1-8.3 2.7-19.5 3.4-25 .8-5.5 2.3-15 3.4-21 1.1-6.1 3.1-17.2 4.5-24.8 5.5-30.1 14.2-68.6 18.7-81.8 1-3.1 3.5-11.9 5.4-19.5 3.3-12.7 12.3-41.1 14.6-45.9 1.2-2.5 7.7-22.2 8.5-25.5.3-1.3 1.8-5.4 3.3-9 1.6-3.6 3.7-8.8 4.7-11.5 1-2.8 2.3-5.9 3-7 .6-1.1 2.2-5.2 3.4-9 1.3-3.9 2.9-7.9 3.6-9 .8-1.1 1.4-2.5 1.4-3.2 0-1.1 3-8 10.5-23.8 6-12.6 9.5-20.6 9.5-21.4 0-.5 2.5-5.8 5.6-11.7 3.1-6 9.3-18.1 13.7-26.9 4.4-8.8 8.7-17.1 9.7-18.5 1-1.4 5-8.6 9-16s9.8-17.6 12.8-22.5c3-5 6.4-10.6 7.5-12.5 4.1-7.1 24.3-38.7 28.4-44.5 2.3-3.3 7.7-11.2 12-17.5 6.6-9.8 20.4-28.5 31.8-43.1 1.7-2.1 5.7-7.4 9-11.6 3.2-4.3 9.3-11.9 13.5-16.8 4.2-5 8.9-10.6 10.5-12.7 8-9.8 18.7-22.1 25.5-29.3 4.1-4.5 12.2-13.2 18-19.4 5.8-6.3 19.7-20.5 30.9-31.5 11.2-11.1 21.3-21.1 22.5-22.3 1.1-1.2 4.1-3.8 6.6-5.8 2.5-2.1 8.3-7.2 13-11.5 13.4-12.3 29.3-26 32-27.8 1.4-.9 6.6-5.1 11.5-9.2 11.9-10.1 30.3-24.4 39-30.6 3.9-2.7 11.8-8.4 17.5-12.7 5.8-4.3 14.6-10.5 19.5-13.7 5-3.3 11.6-7.7 14.9-10 3.2-2.2 6-4 6.2-4 .2 0 3.8-2.4 7.9-5.3 11.5-7.9 18.7-12.6 21.3-13.7 1.2-.5 6.1-3.3 10.8-6.2 4.7-2.9 10-6.1 11.7-7.2 1.8-1 4.4-2.7 6-3.8 7-4.9 75.7-41.3 84.7-45 3-1.2 12-5.4 20-9.4 8-3.9 19.9-9.2 26.5-11.7 6.6-2.5 15.2-6 19-7.7 17.9-8.1 22.8-10.1 33.5-13.5 6.3-2.1 12-4.1 12.5-4.5.6-.4 4.2-1.8 8-3 3.9-1.3 8.6-3.1 10.7-4.1 2-1 11.2-4.1 20.5-6.8 27.8-8.2 36.7-11 38.6-12.1 1-.6 10.2-3.1 20.5-5.6 10.3-2.4 21.6-5.3 25.2-6.4 3.6-1.1 11.7-3.2 18-4.6 6.3-1.4 18.7-4.1 27.5-6.1 8.8-1.9 18.5-3.9 21.5-4.4 3-.5 9.6-1.5 14.5-2.3 5-.8 14.4-2.3 21-3.5 22.6-3.8 55.1-8 79-10.1 6.6-.5 16.5-1.5 22-2.1 5.6-.6 19.3-1.4 30.5-1.9 24.2-1 108-.3 123 1z"/></svg>