<svg xmlns="http://www.w3.org/2000/svg" width="10000" height="10000" viewBox="0 0 10000 10000">
  <metadata><?xpacket begin="﻿" id="W5M0MpCehiHzreSzNTczkc9d"?>
<x:xmpmeta xmlns:x="adobe:ns:meta/" x:xmptk="Adobe XMP Core 5.6-c138 79.159824, 2016/09/14-01:09:01        ">
   <rdf:RDF xmlns:rdf="http://www.w3.org/1999/02/22-rdf-syntax-ns#">
      <rdf:Description rdf:about=""/>
   </rdf:RDF>
</x:xmpmeta>
                                                                                                    
                                                                                                    
                                                                                                    
                                                                                                    
                                                                                                    
                                                                                                    
                                                                                                    
                                                                                                    
                                                                                                    
                                                                                                    
                                                                                                    
                                                                                                    
                                                                                                    
                                                                                                    
                                                                                                    
                                                                                                    
                                                                                                    
                                                                                                    
                                                                                                    
                                                                                                    
                           
<?xpacket end="w"?></metadata>
<defs>
    <style>
      .cls-1 {
        fill: #fff;
        fill-rule: evenodd;
      }
    </style>
  </defs>
  <path id="Forma_1" data-name="Forma 1" class="cls-1" d="M4904.08,96l142.99,0.986c21.59,0,48.05-2.13,67.06,1.972,7.99,1.725,18.88-.474,25.64.986h25.64c29.13,6.346,66.89-.31,95.65,5.917l47.34,1.972c33.32,7.3,73.53,2.654,106.5,9.862l44.38,2.958c13.55,3.031,28.68,1.584,43.39,4.931,40.69,9.266,86.54,7.454,126.22,16.765l70.02,8.876c58.94,14.268,123.21,17.98,180.46,32.544,24,6.1,47.37,6.178,71,12.82,32.13,9.032,66.45,12.363,99.6,21.7,59.15,16.648,122.29,27.855,179.48,46.35,20.94,6.773,41.22,8.894,62.12,15.779,93.6,30.827,191.45,54.39,280.07,90.728,19.7,8.082,39.47,11.619,59.16,19.724,73.78,30.351,149.22,56.051,221.88,87.769,38.48,16.794,77.34,34.076,116.37,51.281,14.96,6.593,30.43,16.11,45.36,22.682,43.61,19.195,85.11,39.707,126.23,61.143,32.03,16.7,64.57,30.975,94.66,49.309,14.73,8.968,30.65,13.741,45.37,22.682,33.58,20.407,69.63,37.39,103.54,58.184,133.32,81.75,264.57,163,390.51,251.475,36.53,25.658,72.27,53.318,108.48,79.878,12.77,9.38,24.69,21.18,37.47,30.57,52.05,38.26,99.56,80.75,150.88,119.33,4.24,3.19,7.59,8.64,11.83,11.84,24.39,18.36,45.72,39.83,70.02,58.18,5.71,4.31,10.07,11.46,15.77,15.78,24.08,18.2,44,40.99,68.05,59.17,10.11,7.64,17.49,19.96,27.61,27.61,22.79,17.23,43.96,39.03,64.1,59.17l21.69,22.68c15.45,11.68,27.84,26.86,41.42,40.44,13.26,13.26,28.05,25.34,39.45,40.43q16.755,16.275,33.52,32.54c21.73,28.74,51.2,51.06,72.98,79.88,6.53,8.65,17.13,15.03,23.67,23.67,20.75,27.44,46.32,50.44,67.05,77.91,3.75,4.97,10.05,8.81,13.81,13.81,18.24,24.22,38.97,45.77,57.19,70.02,4.44,5.9,11.34,10.82,15.78,16.76,42.75,57.17,89.82,111.06,132.14,168.64q145.155,197.445,276.12,409.26c40.19,65.36,74.37,134.5,114.39,200.19q3.45,7.89,6.91,15.78c15.52,25.55,27.84,54.36,43.39,79.88,9.62,15.8,16.09,33.11,23.66,50.3,12.28,27.86,27.72,53.99,40.44,82.84,13.57,30.79,30.81,61.8,44.37,92.7,33.12,75.46,64.01,151.97,95.66,228.79,6.98,16.96,10.71,33.32,17.75,50.29,36.18,87.3,65.13,182.03,95.65,274.16,13.29,40.11,22.76,80.93,35.5,120.31,4.89,15.1,5.95,29.32,10.85,44.38,19.43,59.73,30.98,125.59,48.32,187.38,3.98,14.18,3.89,27.18,7.89,41.42,18.61,66.29,25.45,139.34,42.4,208.08q1.485,11.835,2.96,23.67c6.63,26.67,8.39,57,14.79,83.82q2.475,21.21,4.93,42.41c8.26,35.5,7.65,75.07,15.78,111.43,3.3,14.74,1.9,29.83,4.93,43.4,4.02,17.95,2.2,36.28,5.92,53.25l0.99,22.68c6.18,28.06,2.75,60.72,8.87,88.76q2.955,53.25,5.92,106.5c4.08,18.85-.25,42.75,3.94,62.13v25.64c3.46,16.05-1.65,36.38,1.98,53.26,3.44,16.05-.01,37.41.98,55.22,1.58,28.35.99,60.76,0.99,90.73q-0.495,45.36-.99,90.73c0,20.04,1.84,44.48-1.97,62.13-3.64,16.86,1.49,37.21-1.97,53.25v25.64c-6.65,30.47-.35,67.38-6.91,97.63q-0.48,15.78-.98,31.56c-7.1,32.35-2.83,69.39-9.86,101.58q-0.99,16.26-1.98,32.54c-6.84,30.48-5.02,65.2-11.83,95.66q-0.99,12.825-1.97,25.64c-6.8,29.19-6.95,62.51-13.81,91.72q-0.975,10.845-1.97,21.69c-14.35,61.34-18.38,127.82-33.53,187.38-5.35,21.02-5.02,41.39-10.85,62.12-16.39,58.35-25.36,121.42-41.41,178.5-5.83,20.74-7.2,40.84-13.81,61.14-23.95,73.62-38.77,149.94-63.11,222.88-51.98,155.72-102.41,309.69-165.67,454.63-36.18,82.87-73.8,166.21-113.41,245.56-14.98,30-27.38,60.86-44.37,88.75-18.05,29.62-29.35,63.09-47.34,92.7-39.58,65.13-73.65,133.42-113.4,198.22-62.1,101.24-126.79,200.59-194.27,296.84-57.14,81.5-120.29,158.38-179.48,237.67-21.29,28.52-46.56,54.27-68.04,82.84-6.26,8.32-15.44,15.35-21.7,23.67-27.24,36.19-60.58,66.54-87.76,102.56-8.75,11.58-20.69,20.77-29.59,32.54q-6.405,5.925-12.82,11.84c-11.47,15.17-26,27.22-37.47,42.4q-5.43,4.935-10.85,9.86c-8.21,8.23-15.45,17.43-23.66,25.64q-7.89,7.41-15.78,14.8c-19.64,25.98-47.05,48.03-70.02,71-20.73,20.74-40.59,44.37-64.1,62.13q-4.44,4.935-8.87,9.86a224.5,224.5,0,0,1-22.68,19.73c-10.49,7.92-18.12,20.67-28.6,28.6-28.61,21.64-52.16,49.32-80.86,71-8.49,6.41-15.17,16.26-23.67,22.68-25.66,19.38-48.25,41.81-73.96,61.15-4.24,3.18-7.59,8.65-11.84,11.83-33.53,25.16-64.07,54.23-97.62,78.89-59.9,44.04-117.7,91.2-178.49,134.12-124.93,88.2-255.19,169.12-387.55,250.49-38.33,23.57-79.23,42.85-117.35,66.08-15.32,9.33-31.99,14.34-47.34,23.66-35.03,21.29-73.21,37.84-110.45,57.2q-55.035,28.62-113.4,54.24c-14.26,6.29-29.07,15.4-43.39,21.7-72.97,32.09-146.73,63.01-220.89,93.68-37.11,15.35-75.01,27.47-111.44,42.41-15.26,6.26-30.1,8.52-45.36,14.79-56.65,23.28-119.29,41.53-178.49,61.15-20.39,6.75-39.7,9.96-60.15,16.76-80.78,26.84-167.85,45.26-252.45,69.03-29.96,8.42-61.23,12.51-90.73,20.71-58.61,16.31-122.2,21.47-181.45,36.49-18.35,4.65-35.66,3.4-54.24,7.89-47.25,11.42-100.31,12.47-148.9,23.67-14.86,3.42-29.58,2.8-43.39,5.92q-13.32.975-26.63,1.97c-26.83,6.08-57.95,4.85-84.8,10.85l-180.47,14.79c-19.69,4.27-42.26-.15-61.14,3.94h-19.72c-15.86,3.43-36.37-.48-52.27,2.96h-26.62c-25.18,5.42-57.99-2.63-83.82,2.96h-75.93c-28.44,0-58.95-.65-85.8-0.99-16.67-.2-37.4,2.22-52.26-0.98q-62.13-1.98-124.26-3.95c-24.02-5.24-52.85-.7-76.92-5.91h-14.79c-16.3-3.58-34.24-.19-51.28-3.95-17.17-3.79-37.12-.92-55.22-4.93-9.95-2.2-21.47-.49-32.54-2.96-30.64-6.82-65.28-5-95.66-11.83q-17.25-1.485-34.51-2.96c-28.92-6.67-61.84-7.15-90.73-13.81q-14.295-1.47-28.59-2.96c-30.38-7.35-64.33-9.28-94.67-16.76q-11.835-1.485-23.67-2.96c-62.62-15.65-129.73-22.58-190.32-39.45-17.18-4.78-33.18-5-50.3-9.86-29.63-8.41-62.08-15.33-91.71-23.67-10.17-2.86-18.76-2.71-28.6-5.91-75.35-24.52-153.26-40.21-227.79-65.09-247.83-82.74-485.9-170.76-703.12-284.02-43.92-22.9-88.88-41.91-130.17-67.06-9.94-6.06-20.63-8.75-30.57-14.79-37.17-22.59-76.99-41.17-114.39-64.1-64.08-39.3-128.85-77.31-192.29-117.36-134.62-84.99-259.44-181.79-385.58-275.14-8.56-6.34-16.12-15.32-24.66-21.7-53.8-40.23-101.46-86.97-154.82-127.21-8.88-6.7-15.79-16.97-24.65-23.67-34.84-26.34-62.96-60.59-97.63-86.79q-6.4-6.9-12.82-13.8c-11.67-8.83-20.86-19.77-32.54-28.6l-35.5-36.49c-16.9-12.77-30.43-29.58-45.36-44.38-14.6-14.46-30.91-27.86-43.39-44.38q-13.32-12.81-26.63-25.64c-13.57-13.58-27.83-28.01-39.45-43.39-7.16-9.48-17.29-16.88-24.65-26.62-7.09-9.39-18.54-16.26-25.64-25.65-19.44-25.7-43.65-47.2-63.11-72.97-6.4-8.48-16.29-15.19-22.68-23.67-16.72-22.16-35.58-41.9-52.27-64.1-6.25-8.32-15.45-15.34-21.69-23.67-24.34-32.44-52.09-62.24-75.93-94.67-34.51-46.94-69.83-92.16-103.55-140.04-32.267-45.82-66.208-91.94-98.612-138.06-12.155-17.3-22.2-35.31-33.529-53.26-10.658-16.88-23.835-33.41-34.515-50.29-20.4-32.25-40.047-64.78-60.154-96.65-39.4-62.44-71.891-129.1-110.447-192.3-10.657-17.47-16.891-36.59-27.612-54.24-20.2-33.25-38.088-68.87-54.237-105.52-10.551-23.95-25.948-47.05-36.487-71.01-31.282-71.1-64.616-141.36-95.655-213.01-31.32-72.3-56.674-147.51-86.78-220.9-9.648-23.53-13.979-47.43-23.667-71.01-35.084-85.38-57.046-180.11-86.78-270.21-7.717-23.39-10.108-46.51-17.75-70.02-18.87-58.06-29.6-122.26-46.349-182.44-8.872-31.88-12.138-64.83-20.708-95.66-6.209-22.34-6.021-44.42-11.834-67.06-13.745-53.54-17.422-113.64-30.57-168.64-3.793-15.86-3.453-32.37-6.9-47.33q-0.494-7.4-.986-14.8c-5.319-22.49-5.7-48.39-10.848-71q-0.986-12.825-1.972-25.64c-6.881-30.36-5.073-65.18-11.834-95.66q-6.409-75.435-12.819-150.89-0.493-15.27-.987-30.57c-5.768-26.58-.075-57.83-5.916-84.81-1.73-7.99.477-18.88-.986-25.64-1.8-8.3.545-19.55-.987-26.63-3.647-16.85,1.5-37.22-1.972-53.25v-65.09c-3.04-14.19-.985-34.31-0.986-50.29q0.493-52.755.986-105.52c0-21.89-2.186-48.77,1.972-68.05,1.792-8.31-.541-19.55.987-26.62,3.571-16.56-1.429-36.53,1.972-52.27v-21.7c3.091-14.16.891-32.24,3.944-46.35q0.493-15.78.986-31.56c5.432-24.81,1.647-53.83,6.9-77.9q3.452-44.385,6.9-88.76c3.67-16.35,3.242-35.88,6.9-52.27q0.493-8.865.986-17.75c3.637-15.96,1.95-34.25,5.917-51.28,10.8-46.35,10.478-98.46,21.695-143.98,2.145-8.71.808-15.78,2.959-24.66,5.973-24.63,6.259-51.37,12.819-76.92,16.441-64.02,23.021-132.97,40.432-195.26,4.334-15.5,4.5-29.94,8.875-45.36,17.052-60.08,28.528-124.23,47.334-182.45,4.169-12.9,4.675-24.58,8.876-37.47,12.85-39.44,22.11-80.2,35.5-120.31,30.864-92.47,59.494-187.41,95.655-275.15,8.722-21.16,13.919-41.99,22.681-63.11,30.985-74.71,61.293-149.36,93.682-222.88,17.265-39.18,39.059-78.38,56.21-117.35,12.206-27.74,25.8-53.69,39.445-79.88,13.442-25.81,24.72-51.76,39.446-75.94,7.582-12.45,11.176-26.02,18.736-38.46,21.342-35.13,38.479-73,60.155-108.48,41.109-67.28,80.31-135.68,122.28-202.16,62.743-99.39,132.1-193.78,199.2-288.95,10.75-15.25,24.45-29.35,35.5-44.38,38.58-52.5,80.4-101.1,119.32-152.86,6.26-8.32,15.43-15.35,21.7-23.67,17.53-23.29,37.71-43.86,55.22-67.06,4.03-5.33,10.75-9.44,14.79-14.79,20.02-26.51,45.11-48.52,65.09-74.95,7.09-9.38,18.54-16.26,25.64-25.64,7.36-9.74,17.48-17.14,24.65-26.63,13.27-17.56,29.86-33.78,45.36-49.31l27.61-26.62c9.23-12.22,20.84-21.83,31.56-32.55s20.32-22.32,32.54-31.55l14.79-15.78c15.13-15.13,30.17-31.4,47.34-44.38l13.8-14.79c17.02-12.87,30.32-29.55,47.34-42.41l9.86-10.85c13.09-9.89,23.64-22.83,36.49-32.54,37.2-28.12,69.06-62.54,106.5-90.73,10.76-8.1,19.78-19.54,30.57-27.61,31.9-23.85,60.85-51.53,92.7-74.95,61.2-45,120.25-93.28,182.43-137.079,54.48-38.373,108.89-75.587,165.67-111.438,11.31-7.14,22.23-16.517,33.53-23.668,65-41.132,131.53-79.929,197.23-120.314,33.88-20.826,70-37.73,103.54-58.184,10.56-6.441,21.97-9.356,32.54-15.779,42.91-26.067,89.6-46.362,135.1-70.018,113.88-59.205,235.9-108.314,356.98-160.747,40.5-17.537,83.01-30.822,123.27-47.336,26.18-10.739,52.76-15.886,78.89-26.627,36.67-15.072,76.35-25.437,115.38-38.461,48.06-16.038,99.96-30.511,148.91-46.35,36.08-11.678,73.31-18.237,108.47-29.586,9.85-3.178,18.43-3.03,28.6-5.917,29.62-8.4,62.06-15.379,91.71-23.668,11.38-3.181,21.17-2.723,32.54-5.917,33.9-9.518,70.94-14.874,105.52-23.668,12.81-3.26,23.68-2.629,36.48-5.917,63.27-16.246,133.71-20.4,199.2-35.5l21.7-1.972c26.59-6.294,57.16-6.754,83.82-12.82l43.39-3.945c31.32-7.1,66.71-4.852,98.61-11.834,11.49-2.515,23.27-.707,33.53-2.958,14.91-3.271,30.63-.933,44.38-3.945,21.73-4.763,45.9-.344,67.06-4.931h15.77c26.91-5.858,58.35.022,85.8-5.917l122.28-3.945C4862.12,96.986,4897.84,99.889,4904.08,96ZM2767.13,4436.16v4.93c10.09,2.05,16.26,9.11,23.67,13.81,5.5,3.48,12.04,4.41,17.75,7.89,8.25,5.02,16.6,11.68,24.65,16.76,16.13,10.19,32.55,18.75,48.32,28.6,4.47,2.79,9.69,3.67,13.81,6.9,10.47,8.23,22.99,13.16,34.51,20.71,11.59,7.6,24.4,17.01,36.49,23.67,29.59,16.3,58.23,32.32,86.78,50.3,4.16,2.62,8.59,7.47,12.82,9.86,5.97,3.37,11.28,4.27,16.76,7.89,6.29,4.15,13.05,10.13,19.73,13.8,3.39,1.87,6.85,1.69,9.86,3.95,2.09,1.57.33,3.81,1.97,5.92,0.87,1.11,3.67,1.1,4.93,1.97,11.53,7.88,24.52,13.81,36.49,21.69,23.95,15.79,49.08,29.19,73.96,44.38,5.44,3.33,11.34,8.77,16.76,11.84,63.58,35.9,127.33,65.03,189.34,103.54,9.86,6.13,20.73,8.79,30.57,14.8,43.91,26.8,93.32,49.73,142,71,8.48,3.7,17.44,9.5,25.64,13.81q3.945,1.47,7.89,2.96v2.95c2.38,2.35,10.97,5.78,13.81,6.91,54.34,21.64,98.55,49.59,152.85,71,12.32,4.86,24.41,14.85,36.48,19.73,15.29,6.16,28.32,13.52,42.41,19.72,22.3,9.82,43.64,16.76,66.07,26.63,6.77,2.97,10.99,9.79,17.75,12.82,26.43,11.83,51.31,23.62,75.93,36.48q10.845,4.44,21.7,8.88c14.14,8.51,30.01,14.71,45.36,22.68,6.6,3.43,14.02,9.14,20.71,11.84,38.42,15.5,74.23,32.4,109.46,53.25,8.26,4.89,16.87,6.73,25.64,10.85,6.48,3.04,14.42,8.99,20.71,12.82q5.415,1.965,10.84,3.94c8.68,4.32,17.61,9.89,25.64,14.8,3.59,2.18,6.77,2.14,10.85,3.94,8.99,3.97,18.35,10.73,26.63,15.78q7.4,2.955,14.79,5.92c43.95,26.62,92.37,48.23,136.09,74.95,16.87,10.31,35.42,16.37,52.26,26.62,45.33,27.6,93.46,50.97,139.05,78.9,43.64,26.74,89.05,50.91,133.12,77.9,18.54,11.35,37.32,26.08,56.21,36.49,20.04,11.04,43.38,26.52,64.1,39.45,4.06,2.53,8.09,3.21,11.84,5.92,13.32,9.62,24.33,23.92,37.47,33.53,39.75,29.05,74.2,64.91,109.46,98.61,37.09,35.46,73.37,71.01,107.49,109.47,13.83,15.58,28.67,29.4,41.42,46.35,3.73,4.97,10.05,8.8,13.8,13.81,14.86,19.8,32.68,37.43,47.34,57.19,12.9,17.41,25.49,35.87,41.41,50.3,5.36,4.86,13.02,23.46,17.76,30.57,8.11,12.19,20,23.91,27.61,36.49,10.17,16.82,18.25,32.98,28.59,49.31,3.09,4.88,7.79,9.81,10.85,14.79,2.89,4.69,3.77,9.38,6.91,13.81,2.35,3.33,4.85,2.44,5.91,7.89h3.95c1.43,4.73,2.98,3.14,5.91,5.91,2.17,2.04,2.21,6.37,3.95,8.88,5.26,7.59,12.72,14.43,17.75,22.68,17.51,28.73,35.75,56.97,54.24,84.81,3.18,4.8,4.14,13.63,6.9,17.75,3.6,5.39,10.93,10.33,14.79,15.78,11.86,16.74,20.73,35.96,31.56,53.26,2.59,4.14,3.03,8.76,5.91,12.82,9.84,13.83,28.76,33.29,34.52,49.31,3.32,9.23,3.34,16.07,6.9,24.65,5.33,12.82,14.26,27.91,17.75,42.41-0.33,1.31-.66,2.63-0.98,3.94,1.45,6.61,6.43,16.36,8.87,22.68,2.06,5.35.6,10.58,2.96,15.78,9.72,21.41,8.02,52.21,14.79,76.92q0.99,12.33,1.97,24.66c2.46,9.84,6.74,34.77,4.93,43.39-1.69,8.08,1.26,24.09,2.96,30.57,3.08,11.7-.68,24.96,1.97,35.5,2.07,8.22.34,33.41-1.97,38.46v17.75c-4.48,18.38-.6,38.05-4.93,55.23-3.3,13.1-1.77,28.15-4.93,40.43-1.01,3.93-.13,17.22-0.98,17.75h-7.89c-2.28-1.51-8-1.1-11.84-.98v0.98h0.99c4.64,2.83,13.36.95,17.75,3.95-4.43,7.36-2.57,32.61-8.88,36.49-4.27-2.8-13.86-3.56-19.72-3.95v0.99h-0.99c1.01,0.79.28,0.35,1.98,0.99,2.57,1.72,15.13,3.78,20.71,3.94-1.12,12.47-5.67,26.19-8.88,37.47q-1.485,10.86-2.96,21.7-4.92,17.25-9.86,34.52c-13.81,52.5-23.25,102.24-43.39,150.88-6.31,15.23-8.45,30.44-14.79,45.37-19.83,46.67-38.86,93.88-59.17,140.03a439.824,439.824,0,0,1-25.64,49.31c-5.11,8.4-7.22,18.03-11.83,26.63-9.02,16.8-18.83,34.33-28.6,50.29-9.93,16.22-15.83,33.26-25.64,49.31-35.91,58.76-72.54,117.23-111.43,172.58-10.85,15.44-19.75,30.94-30.57,46.35-25.22,35.89-53.65,70.2-79.88,105.52-29.05,39.11-64.32,73.42-93.68,112.43-5.17,6.86-13.59,11.93-18.74,18.73-21.15,27.99-49,50.1-70.01,77.91q-12.825,12.33-25.64,24.66c-7.89,10.42-17.51,18.49-26.63,27.61-20.39,20.39-41.63,39.86-62.13,60.16-34.39,34.07-69.48,69.33-108.47,98.61l-7.89,8.88c-20.32,15.37-37.78,34.47-58.18,49.31-20.76,15.1-40.06,31.59-59.17,48.32-13.95,12.22-30.23,21.69-45.36,32.55-12.79,9.17-24.67,21.34-37.48,30.57-14.11,10.17-28.01,18.74-42.4,28.6-14.7,10.07-28.79,23.29-43.39,33.53-18.19,12.75-37.04,22.76-55.22,35.5-12.26,8.59-24.75,18.71-37.48,26.62-135.98,84.57-276.81,167.76-428.96,235.7-65.22,29.12-132.39,53.32-199.2,80.87l-24.66,6.9c-31.55,13.42-64.32,22.34-97.62,34.52-7.95,2.9-15.07,2.1-22.68,4.93-33.25,12.33-70.35,18.44-108.48,27.61-20.44,4.92-41.7,3.45-61.14,7.89h-16.76c-17.83,3.94-39.54,1.92-57.2,5.92-7.65,1.73-18.21-.47-24.65.98h-25.64c-12.07,2.66-29.57.99-43.39,0.99-18.61,0-41.86-1.72-58.18,1.97-15.97,3.61-37.71-1.54-53.26,1.97h-24.65q-33.525,1.485-67.06,2.96c-11.06,2.45-24.36.27-36.48,2.96-2.47.55-12.29,2.52-14.8,1.97-11.22-2.47-49.55-3.59-63.11.99v0.99h0.99c13.91,10.52,42.54,17.22,61.14,22.68q5.91,0.495,11.83.98c22.31,5.74,47.41,8.42,70.02,13.81h12.82c10.01,2.33,24.18,2.52,34.51,4.93q29.58,2.46,59.17,4.93c37.47,8.43,80.26,1.81,115.38,9.86h22.68c17.37,0.01,42.3-.68,58.18,2.96l71,0.99c21.1,4.61,58.86.98,82.84,0.98,16.78,0.01,38.32,2.45,53.25-.98,15.13-3.48,34.39,2.22,48.32-.99h23.67c15.69-3.5,40.12-2.95,57.19-2.96h22.68c14.42-3.24,27.57-.07,41.42-2.95,8.97-1.87,27.75-.13,40.43-2.96,7.32-1.64,16.4-.11,24.66-1.98,33.14-7.47,71.68-4.17,104.53-11.83h13.8c9.49-2.16,20.08-1.49,30.57-3.94q78.39-11.34,156.8-22.69c49.02-12.65,104.46-17.06,151.86-30.57q13.815-1.965,27.61-3.94c32.64-9.26,69.11-14.72,101.58-24.66,7.62-2.33,13.99-1.59,21.69-3.94,73.31-22.42,150.39-38.02,219.91-64.1,7.92-2.98,15.18-2.81,23.67-5.92,91.52-33.61,185.34-61.63,273.16-99.6,44.82-19.39,89.12-40.34,135.1-58.19,12.16-4.72,24.55-13.61,36.48-18.74,30.54-13.12,58.43-27.06,88.76-40.43,8.68-3.83,17.3-10.39,25.63-14.79,28.08-14.83,56.61-27.43,82.84-43.39,15.56-9.47,31.71-14.26,47.33-23.67,33.54-20.2,67.62-39.07,102.56-58.19,9.43-5.15,18.34-13.21,27.61-18.73,33.88-20.19,66.1-39.89,99.6-60.16,5.8-3.5,11.15-9.07,16.77-12.82,14.99-10.01,29.82-18.45,45.36-27.61,6.44-3.8,12.48-10.63,18.74-14.8,13.36-8.9,26.03-15.84,39.44-24.65,9.14-6,17.56-14.62,26.63-20.71,84.22-56.57,160.42-121.31,240.61-181.46,4.24-3.17,7.57-8.63,11.84-11.83,20.41-15.26,38.77-32.03,59.17-47.34,5.71-4.29,10.07-11.47,15.77-15.78,24.73-18.65,45.36-41.54,70.02-60.15l12.82-13.81c16.78-12.69,29.83-29.91,46.35-42.4,15.73-11.91,27.82-27.48,42.4-40.44,20.08-17.84,38.25-37.26,57.2-56.21,23.38-23.39,49.97-45.44,70.01-71.99,7.62-10.09,19.38-18.68,27.61-29.59q6.42-5.91,12.82-11.83c12.16-16.07,27.24-29.18,39.45-45.36q6.405-5.925,12.82-11.84c20.86-27.64,46.29-50.94,67.06-78.89,3.72-5.01,10.09-8.83,13.8-13.81,20.24-27.15,42.83-51.7,63.12-78.89,5.68-7.62,14.04-14.05,19.72-21.7,63.42-85.49,128.61-169.79,190.32-257.39,6.99-9.92,11.79-20.66,18.74-30.57,23.36-33.35,45.14-67.35,67.06-102.56,9.38-15.09,21-30.24,30.57-45.37,11.93-18.87,20.74-38.13,32.54-57.2,5-8.09,12.16-16.28,16.76-24.65,8.83-16.05,16.02-31.65,25.64-47.34,24.94-40.67,46.91-85.13,71.99-126.23,12.51-20.49,19.04-43.49,31.56-64.1,19.03-31.33,35.13-66.01,50.29-100.59,16.87-38.49,39.11-77.43,56.21-116.37,20.46-46.59,40.17-93.93,60.15-140.03,3.06-7.05,3.3-13.4,6.91-21.7,4.51-10.41,10.7-21.86,14.79-32.54,6.03-15.79,11.73-29.84,17.75-44.38,2.18-5.27,1.77-10.5,3.94-15.78,12.25-29.72,25.74-62.12,36.49-92.7,35.66-101.51,64.56-205.83,98.61-309.66,3.59-10.92,3.43-20.93,6.91-31.56,17.3-53,27.65-112.19,44.37-166.66,7.48-24.37,7.76-49.06,14.79-73.96,14.44-51.14,21.19-109.22,34.52-161.74q0.495-7.89.98-15.78c5.56-22,8.1-47.21,13.81-69.03,4.63-17.69,2.37-35.57,6.9-54.24,8.61-35.46,9.13-75.15,17.75-111.44l0.99-21.69c3.15-13.76,3.62-30.58,6.9-44.38,4.79-20.11,2.45-42.09,6.91-61.14,4.48-19.14,1.71-38.94,5.91-57.2l0.99-30.57c6.86-30.76,1.72-66.47,8.87-97.63l0.99-32.55c4.46-20.17.31-44.91,4.93-65.09,1.9-8.26-.63-19.56.99-26.62v-29.59c3.08-14.03,1.97-31.78,1.97-47.33v-16.77c3.17-14.44.99-35.02,0.99-51.28V4578.17c0-21.32,3.45-48.72-.99-68.05-2.69-11.7,1.43-26.98-.99-37.47v-15.78c0-12.58.72-29.72-1.97-41.42v-25.64c-4.47-20.12-.31-45.01-4.93-65.09q-0.495-16.275-.99-32.54c-7.06-31.7-1.67-67.42-8.87-98.62q-1.485-25.14-2.96-50.3c-10.38-45.61-7.29-98.22-17.75-142.99v-11.83c-4.31-18.95-3.11-39.58-7.89-59.18-5.26-21.55-6.64-46.4-11.83-68.04q-0.495-8.88-.99-17.75c-13.93-57.88-16.8-117.35-32.54-172.58q-6.405-35.505-12.82-71.01c-16.87-59.31-25.99-125.73-44.38-185.4-4.92-15.97-5.58-31.22-10.84-47.34-6.1-18.64-11.71-39.52-17.75-58.18-2.67-8.23-2.65-17.82-5.92-27.61-10.06-30.13-19.5-63.69-29.59-93.69-2.54-7.56-2.35-13.91-4.93-21.7-5.91-17.86-13.87-37.1-19.72-55.22-7.78-24.11-15.54-53.48-25.64-77.91-6.95-16.83-9.22-32.95-15.78-50.29-25.55-67.6-51.84-134.72-77.9-202.17-4.5-11.63-11.79-24.07-16.77-35.5-9.19-21.11-15.37-41-24.65-62.13-18.79-42.8-38.99-85.02-58.18-128.2-4.78-10.77-13.02-21.53-17.75-32.55-15.5-36.06-32.45-72.05-52.27-104.53-3.3-5.42-4.23-10.71-6.9-16.77-4.4-10-11.17-20.42-16.76-29.58-3.86-6.33-5.03-13.39-8.88-19.73-9.6-15.78-18.98-33.55-28.6-49.31-3.92-6.42-5-13.15-8.87-19.72-12.58-21.36-25.55-42.39-37.47-65.09-9.8-18.64-23.34-37.5-34.52-55.22-10.33-16.37-17.43-32.86-27.61-49.31-11.06-17.87-24.39-35.61-35.5-53.25-47.95-76.11-96.77-149.23-147.92-221.89-8.99-12.77-20.47-24.82-29.59-37.48-27.99-38.87-56.47-76.05-84.8-114.39-10.66-14.42-24.83-27.2-35.5-41.42-34.17-45.53-73.43-85.95-107.49-131.17q-5.43-4.92-10.85-9.86c-15.3-20.24-34.02-36.94-49.31-57.2-13.99-18.54-34.09-33.42-48.32-52.26q-8.385-7.89-16.76-15.78c-14.08-18.61-31.92-34.88-48.32-51.28q-7.89-7.395-15.78-14.8a237.841,237.841,0,0,0-44.38-44.37c-8.99-6.79-15.41-16.69-24.65-23.67l-10.85-11.84c-10.69-10.69-21.33-21.36-33.53-30.57q-5.91-6.4-11.83-12.82c-18-13.61-32.28-30.77-50.29-44.38q-4.935-5.415-9.86-10.84c-37.55-28.34-69.74-62.36-107.49-90.73-10.36-7.78-19.26-18.86-29.59-26.63-46.14-34.68-89-72.728-137.07-105.519-15.28-10.42-28.95-25.123-44.38-35.5-29.36-19.766-57.07-41.071-85.79-61.143-6.11-4.267-12.68-6.606-18.74-10.848-12.91-9.047-27.09-21.69-40.43-29.585-30.91-18.3-59.81-39.226-89.74-58.185-38.89-24.641-78.84-47.314-118.33-71-18.6-11.155-42.25-14.792-63.11-23.669-20.6-8.762-44.66-19.126-66.08-26.626-24.18-8.469-48.23-12.519-71-21.7v2.958c10.05,3.664,23.9,26.628,30.57,35.5,2.89,3.846,8.06,6.911,10.85,10.848,5.52,7.774,9.27,15.358,14.79,22.682,3.47,4.6,9.36,8.147,12.82,12.82,14.1,19.025,28.41,37.189,47.34,51.281,24.21,18.03,49.03,34.7,73.96,52.267,33.26,23.438,64.69,49.824,97.62,73.964,41.53,30.438,78.14,67.724,119.33,98.617,5.36,4.019,9.45,10.768,14.79,14.793,11.79,8.9,21.79,18.754,33.53,27.613q5.415,5.916,10.84,11.834a375.5,375.5,0,0,1,35.51,30.567c10.65,10.42,20.52,21.5,32.54,30.58,13.63,10.29,22.91,27.2,36.48,37.47,13.54,10.24,24.2,23.03,35.51,35.5,1.83,2.03,4.91,3.03,6.9,4.93,10.94,10.49,22.39,22.38,31.55,34.52q9.375,8.88,18.74,17.75c12.31,16.27,28.08,29,40.43,45.36q6.42,5.925,12.82,11.84c13.6,17.97,29.77,33.2,43.39,51.28q4.935,4.44,9.86,8.88c10.58,14.01,22.01,26.41,32.55,40.43,3.47,4.62,9.36,8.21,12.82,12.82,33.88,45.09,70.44,87,103.54,133.13,3.9,5.44,9.91,10.26,13.81,15.78,26.52,37.56,54.5,74,80.86,111.44,15.45,21.94,29.06,44.18,43.39,67.06,11.15,17.8,25.23,35.45,36.49,53.25,27.59,43.63,54.51,87.9,80.86,132.15,20.46,34.38,37.55,70.71,58.18,104.54,2.17,3.55,1.92,6.96,3.95,10.84,3.15,6.03,8.24,12.87,11.83,18.74,3.63,5.95,4.28,12.58,7.89,18.74,14.57,24.92,27.09,47.56,38.46,75.93,3.77,9.42,11.57,19.09,15.78,28.6,2.3,5.23,2.33,9.53,4.93,14.79,19.46,39.5,39.85,82.14,57.19,123.28,20.47,48.54,37.75,95.57,58.18,144.96,4.08,9.87,4.9,19.01,8.88,28.6,36.7,88.49,58.65,187.31,89.74,282.05q3.45,16.77,6.9,33.53c14.17,43.52,20.69,93.9,33.53,139.05q2.46,16.77,4.93,33.53c7.21,26.77,10.13,57.19,16.76,84.81l0.99,16.77c3.34,13.78,4.48,30.61,7.89,44.37,4.21,17.04,3.13,35.11,6.9,51.29q3.45,38.94,6.9,77.9c6.34,28.39,1.25,61.76,7.89,90.73,2.69,11.72-.49,24.76,1.98,35.5q0.48,23.175.98,46.35c3.06,13.98-2.32,33.12.99,48.33,2.54,11.65,2.67,34.71,0,46.35v55.22c-1.78,8.01,1.07,20.36-.99,29.59-6.56,29.43-.27,65.93-6.9,94.67l-0.99,23.67c-5.39,23.77-3.4,51.79-8.87,74.95q-0.495,9.855-.99,19.72c-3.94,17.17-3.5,35.34-7.89,53.26-10.78,44.04-14.79,91.65-26.62,133.13q-0.495,5.91-.99,11.83c-30.31,114.15-60.89,222.15-103.54,323.47-4.03,9.57-10.66,19.95-14.8,29.58-11.69,27.28-22.84,53.86-37.47,77.91-2.48,4.08-1.37,6.58-2.96,9.86-4.27,8.86-10.68,18.28-15.77,26.63q-3.465,7.89-6.91,15.78c-31.89,52.27-62.04,105.29-96.64,154.83-11.06,15.83-25.17,30.78-36.49,46.35-107.11,147.37-250.62,272-407.27,369.82-76.51,47.77-161.04,85.85-248.51,122.28-57.6,24-127.63,39.33-192.29,59.17-16.69,5.12-33.44,5.12-50.29,9.86-34.9,9.83-76.26,11.53-113.41,20.71-12.48,3.09-25.8,2.19-37.47,4.93-8.68,2.04-14.44-1.82-22.68,0-16.96,3.75-37.05,3.93-54.24,7.89-16.3,3.77-40.84-1.69-57.2.99-23.67,3.87-49.95,2.95-76.92,2.96-26.07,0-52.25,1.06-73.96-3.95h-16.76c-5.88-1.32-14.91-1.62-20.71-2.96h-14.79c-6.53-1.46-16.5-1.52-22.68-2.95h-15.78c-33.09-7.49-69.79-6.39-101.57-13.81q-14.79-.99-29.59-1.97c-17.81-4.25-38.21-4.1-57.19-8.88-14.55-3.66-31.9-5.39-46.35-8.87l-15.78-.99c-23.8-6.16-49.09-11.21-71.99-17.75q-9.855-1.485-19.72-2.96c-38.95-11.18-80.89-20.92-119.32-33.53-18.56-6.09-38.81-8.1-56.21-13.81-23.53-7.71-47.51-8.13-71-15.77-28.6-9.31-60.77-13.27-90.73-22.69-26.55-8.35-57.55-16.52-85.79-22.68,0.28-2.42.65-.47,0-2.96-19.25-.79-38.31-10.39-54.24-15.78-28.92-9.78-58.87-17.23-86.78-26.62-14.54-4.9-25.76-4.94-40.43-9.86-84.08-28.24-169.85-57.79-250.48-90.73-21.89-8.95-42.26-13.77-64.1-22.68-82.39-33.62-165.63-64.32-247.52-98.62-93.16-39.02-189.62-81.64-284-123.27-23.2-10.24-47.53-25.26-71-34.52q-4.44-.99-8.88-1.97c-10.52-4.59-21.04-12.17-31.56-16.77-14.23-6.22-27.81-8.75-42.4-14.79-37.7-15.6-79-27.9-116.36-43.39-8.02-3.33-15.73-3.63-23.67-6.91-45.5-18.77-94.75-34.51-140.03-53.25q-9.375-2.46-18.74-4.93c-12.82-5.3-27.39-12.16-40.43-16.76-8.8-3.11-15.74-3.06-23.67-6.91-19-9.23-41.26-14.08-62.12-22.68C2803.12,4448.42,2783.08,4436.99,2767.13,4436.16ZM5722.57,2954.92c-6.86,4.05-20.82-.98-29.58.99-24.09,5.41-51.6,1.31-75.93,6.9-19.84,4.56-43.2,6.12-62.13,10.85l-15.78.99c-24.91,5.99-52.4,11.48-75.93,18.73q-16.275,3.45-32.54,6.91c-53.41,18.52-106.67,35.28-156.8,57.2-51.39,22.47-99.27,51.17-146.93,77.9-8.87,4.98-16.88,13.74-25.64,18.74-42.19,24.11-77.5,55.38-115.38,83.83-8.93,6.71-16.01,16.66-24.65,23.66-17.88,14.49-33.16,30.26-49.31,46.35-11.63,11.59-23.51,22.24-33.53,35.51q-6.9,6.405-13.8,12.82c-11.42,15.09-25.53,28.32-36.49,43.39-44.41,61.05-91.8,121.52-124.25,194.27-4.95,11.1-14.04,22.22-18.74,33.53-12.39,29.86-24.93,59.24-37.47,88.76-6.02,14.15-10.33,33.7-16.77,49.31-9.65,23.4-12.14,49.89-19.72,74.95-3.7,12.23-6.49,27.51-9.86,40.43-2.18,8.36-.38,15.35-2.96,23.67-7.24,23.36-6.99,52.57-12.82,77.91q-0.5,13.8-.98,27.61c-5.62,25.73-2.96,58.34-2.96,87.77-0.01,60.63,2.77,127.49,16.76,175.54q1.485,11.34,2.96,22.68c4.96,19.03,8.88,40.36,14.79,58.19,5.04,15.17,6.63,29.82,11.84,45.36,8.86,26.48,20.94,55.15,31.55,79.88,3.47,8.09,3.86,15.71,7.89,23.67,41.47,81.91,84.64,159.96,140.03,227.81,107.33,131.47,249.39,234.7,417.14,305.71,8.62,3.65,17.2,3.84,25.64,7.89,52.36,25.16,116.15,36.28,177.5,52.27q9.375,0.975,18.74,1.97c29.82,7.39,66.33,7.61,97.62,14.79l29.59,0.99c15.99,3.49,38.52-1.64,55.22,1.97,8.98,1.94,26.53,2.07,35.5,0h15.78c13.94,0,28.58.76,40.43-1.97l30.57-.99c21.1-4.8,48.21-4.55,69.03-9.86l13.81-.99c27.59-7.77,57.3-8.93,84.81-16.76,51.56-14.69,103.63-28.99,149.89-48.32l7.89-.99c12.87-5.26,26.75-13.25,39.44-18.74q3.945-.495,7.89-0.98c6.45-2.64,13.58-7.65,19.72-10.85,7.49-3.9,13.73-5.34,21.7-8.88,9.98-4.42,20.33-11.83,29.58-16.76,5.79-3.09,11.37-3.57,16.77-6.91,4.27-2.64,9.08-6.4,13.8-8.87,3.79-1.98,8.49-2.36,11.84-4.93,14.49-11.13,31.71-18.22,47.33-28.6,30.37-20.18,60.27-41.73,89.74-63.12,8.63-6.26,16.14-15.38,24.65-21.69,6.92-5.13,14.27-9.15,20.71-14.79,63.73-55.86,123.27-117.1,173.56-186.39,4.19-5.77,10.66-10.88,14.79-16.77,20.2-28.8,39.54-58.9,58.19-88.75l6.9-15.78c13.81-21.31,24.46-44.18,36.49-68.05,5.46-10.84,13.18-23,17.75-34.51,12.19-30.78,23.79-61.89,36.48-92.7,6.09-14.78,7.68-29.86,12.82-45.37,45.17-136.29,63.46-369.9,18.74-522.67-4.4-15.01-4-29.91-8.88-44.38-10.11-29.98-16.86-60.67-29.58-90.73-9.08-21.44-18.92-42.61-28.6-64.1-7.55-16.77-12.46-32.96-21.69-48.32-11.29-18.76-22.58-39.31-34.52-57.2-3.56-5.34-4.35-11.47-7.89-16.76-19.24-28.78-39.88-56.87-60.15-84.82-8.89-12.25-21.54-22.51-30.57-34.51-19.69-26.16-43.89-47.38-67.06-70.02a817.071,817.071,0,0,0-93.68-78.89c-6.71-4.86-12.71-12.14-19.72-16.77-28.97-19.12-58.65-37.27-87.77-56.21-6.18-4.02-13.42-5.05-19.72-8.88-19.31-11.73-41.98-24.25-63.12-33.53-7.69-3.37-15.21-4.07-22.68-7.89-29.94-15.33-62.31-24.5-96.64-36.48C5993.57,2972.84,5865.6,2955.23,5722.57,2954.92ZM4411.02,8750.68h1.97v0.98C4411.26,8751.04,4412.03,8751.47,4411.02,8750.68Z"/>
</svg>
