<svg xmlns="http://www.w3.org/2000/svg" width="5350" height="9300" viewBox="0 0 5350 9300">
  <metadata><?xpacket begin="﻿" id="W5M0MpCehiHzreSzNTczkc9d"?>
<x:xmpmeta xmlns:x="adobe:ns:meta/" x:xmptk="Adobe XMP Core 5.6-c138 79.159824, 2016/09/14-01:09:01        ">
   <rdf:RDF xmlns:rdf="http://www.w3.org/1999/02/22-rdf-syntax-ns#">
      <rdf:Description rdf:about=""/>
   </rdf:RDF>
</x:xmpmeta>
                                                                                                    
                                                                                                    
                                                                                                    
                                                                                                    
                                                                                                    
                                                                                                    
                                                                                                    
                                                                                                    
                                                                                                    
                                                                                                    
                                                                                                    
                                                                                                    
                                                                                                    
                                                                                                    
                                                                                                    
                                                                                                    
                                                                                                    
                                                                                                    
                                                                                                    
                                                                                                    
                           
<?xpacket end="w"?></metadata>
<defs>
    <style>
      .cls-1 {
        fill: #fff;
        fill-rule: evenodd;
      }
    </style>
  </defs>
  <path id="Forma_1" data-name="Forma 1" class="cls-1" d="M3096.89,6930.88c-5.76-.04-14.98-1.22-18.8-3.96,7.07,0.04,12.69,1.65,18.8,2.97,0.31-13.75,4.17-27.75,6.92-40.56-5.76.04-17.54-1.13-19.78-4.94h0.99c4.06,2.64,13.99,2.89,19.78,2.97q4.455-37.095,8.9-74.19v-19.78c1.17-7.77,1.28-18.97,2.97-26.7v-18.8h1.98V6729.1c0-16.89-1.86-31.88-1.98-47.48-0.1-12.17-.53-24.42-2.97-35.6q0.5-5.94.99-11.87c-3.45-23.6-4.93-52.42-10.88-74.19-3.99-14.58-1.45-30.17-4.95-44.51-9.49-38.99-18.27-74.51-31.65-109.79-1.79-4.73-6.22-9.58-7.91-13.84-2.66-6.71-5.21-13.98-6.92-19.78l0.99-4.95c-1.43-4.45-5.82-7.31-6.93-14.84h-2.97c-7.89-14.06-18.95-25.39-27.69-38.57-8.08-12.19-13.09-25.13-19.78-38.58-3.32-6.66-9.85-13.46-13.85-19.78-2.45-3.87-3.08-8.33-5.93-11.87-0.89-1.1-2.95-.04-3.96-0.99-3.03-2.86-3.25-8.61-5.94-11.87q-2.46-.975-4.94-1.97c-2.15-2.71-2.89-10.99-5.94-15.83-9.43-15-20.19-30.5-29.67-45.5-4.14-6.55-6.32-13.54-10.88-19.78-9.7-13.27-18.14-27.55-27.69-41.54-6.26-9.17-15.74-17.42-20.77-27.7-2.88.06-1.38,0.96-2.97,0-10.81-11.47-16.75-26.03-25.72-39.56-10.61-16-20.94-31.92-30.66-49.46-8.69-15.66-23.09-29.41-32.64-44.5-5.42-8.56-8.39-18.99-14.84-26.71-1.88-2.26-6.18-2.34-7.91-4.95-27.3-41.11-60.57-78.46-92.98-114.73-10.13-11.35-19.56-23.44-28.68-35.61-4.7-6.26-12.26-11.26-17.8-16.81-6.93-6.93-12.62-15.08-18.8-22.75-3.1-3.85-8.89-6.02-11.87-9.89-16.06-20.89-35.9-37.02-54.4-55.39-6.63-6.59-11.69-15.75-18.79-21.76-8.58-7.26-17.63-13.98-25.72-21.76-1.13-1.1-.84-3.87-1.98-4.95-36.43-34.6-79.09-68.21-116.71-102.87-9.3-8.57-19.69-15.86-29.67-23.73-1.69-1.34-9.64-6.92-7.92-7.92-16.73-6.09-34.47-19.56-50.44-29.67-25.3-16.02-51.04-30.98-76.16-46.49-65.65-40.53-134.27-76.26-199.8-116.71-15.78-9.74-32.55-16.06-48.47-25.72-60.37-36.63-126.43-66.8-186.94-103.85-23.85-14.61-50.22-23.07-74.18-37.59-23.31-14.13-49.87-25.28-73.19-39.56-6.76-4.14-15.51-5.09-21.76-9.89-17.1-13.14-40.63-20.47-60.34-30.67-40.58-20.98-82.2-41.77-124.63-60.33-11.9-5.21-23.74-13.51-35.6-18.79-33.3-14.84-65.61-29.74-97.93-46.49-6.09-3.16-10.97-9.17-16.81-11.87-25.03-11.56-49.94-19.64-75.17-30.66-41.64-18.19-81.37-40.88-123.64-59.35-16.75-7.31-33.75-18.28-50.45-25.71-13.011-5.8-25.006-10.33-37.581-16.82-14.6-7.54-31.044-17.78-46.488-21.76,0.008-3.13,1.676-1.33-.989-2.97-4.489-3.98-11.19-4.99-16.815-7.91-15.389-7.99-30.967-15.45-47.477-22.75-17.387-7.68-35.033-18.98-52.422-26.7-24.58-10.92-47.454-22.29-69.238-35.61-10.342-6.33-21.3-9.52-31.651-15.83-36.389-22.17-78.295-46.25-116.714-62.31-3.47-1.45-7.647-5.9-10.881-7.91-11.446-7.15-23.284-14.45-34.618-20.77-2.214-1.24-4.856.44-5.935,0-6.889-2.85-14.4-9.88-20.771-13.85-4.358-2.72-9.318-3.19-13.848-5.94-29.24-17.72-58.952-36.48-88.03-54.4-12.362-7.62-24.732-14.35-36.6-21.76-3.789-2.36-11.8-4.08-13.847-7.91q0.493-1.98.989-3.96c-2.225-3.15-10.418-4.79-13.848-6.92-9.595-5.97-19.682-11.59-29.673-17.8-32.9-20.47-67.031-40.8-99.9-61.33-56.6-35.34-114.853-67.75-171.115-102.86-12.94-8.08-27.045-14.94-39.564-22.75-5.122-3.2-12.737-3.66-13.848-10.88H0.989v-0.99c41.481,15.01,85,30.69,125.616,47.47,24.358,10.07,49.659,16.99,73.194,26.71,10.454,4.32,20.206,5.58,30.662,9.89,38.492,15.87,80.262,28.65,118.693,44.51,10.455,4.32,20.2,5.58,30.662,9.89,39.465,16.27,82.2,29.22,121.66,45.5q17.8,5.94,35.608,11.87c20.293,8.87,41.03,20.7,61.324,29.67,72.406,32,144.375,65.14,216.614,96.93,82.78,36.44,167.03,69.43,250.248,104.85,32.59,13.87,65.09,23.95,97.92,37.58,68.86,28.61,142,52.35,211.67,81.11,27.75,11.46,56.03,17.14,84.07,28.68,28.4,11.7,58.36,19.62,88.03,30.67,11.84,4.4,26.26,11.2,38.57,13.84,2.94,0.63,4.96-1.26,8.91,0,34.96,11.2,71.05,20.75,106.82,32.64,16.67,5.55,34,13.24,53.41,15.83v2.97c17.99,1.68,37.85,8.73,54.4,13.84,31.54,9.75,64.24,14.28,94.96,23.74,32.34,9.97,63.84,13.72,96.93,22.75,50.99,13.92,104.43,25.52,153.31,41.54,45.05,14.77,94.06,21,140.45,33.63,23.67,6.45,49.13,6.16,72.21,11.87,26.25,6.51,55.17,4.77,81.1,10.88l16.82,0.99c34.07,7.9,68.9,9.07,103.85,13.85,2.37,0.32,5.3-1.77,8.91-.99,15.95,3.44,30.36.17,47.47,3.96,13.23,2.92,28.36.81,42.53,3.95,8.83,1.96,24.68,4.62,32.65,2.97h93.96c20.32-4.53,47.07.07,68.25-3.96l11.87,0.99c20.36-4.52,44.07-4.25,64.29-8.9l14.84,0.99c36.9-7.78,76.98-7.71,111.77-16.82q14.34-1.965,28.68-3.95c38.45-9.97,80.6-14.59,117.7-26.71,30-9.79,60.89-16.63,91-26.7,53.09-17.76,105.38-37.4,155.29-59.35,101.59-44.68,195.56-100.58,281.89-161.22,29.18-20.5,56.5-43.89,85.07-65.28,6.68-5.01,12.12-12.78,18.79-17.81,19.67-14.81,35.88-32.74,55.39-47.47q10.875-11.385,21.76-22.75a170.169,170.169,0,0,0,32.64-32.64q8.9-8.415,17.8-16.82a268.746,268.746,0,0,0,23.74-27.69c4.88-6.47,12.92-11.34,17.81-17.81,33.02-43.67,70.08-84.44,101.87-129.57,71.01-100.76,131.72-212.1,183.98-331.35,22.26-50.8,41.29-104.64,59.34-158.25,11.47-34.05,19.56-69.01,30.67-102.87,12.21-37.22,16.97-77.03,27.69-114.73q10.38-55.4,20.77-110.78,1.485-13.35,2.97-26.71c6.7-27.69,6.17-60.58,12.86-89.02l1.98-29.67c4.71-21.01,1.97-46.66,6.92-68.25v-13.84c2.14-9.71.68-23.66,2.97-33.63v-18.8c3.53-16.09.32-35.05,1.98-53.41,1.93-21.44.98-47.13,0.99-70.22,0-21.37,3.37-52.24-.99-71.22-1.98-8.6.71-20.29-.99-27.69v-19.79c-0.26-12.88-.2-30.47-2.97-42.53v-15.82c-2.9-12.99-1.02-29.84-3.96-42.53q-0.495-11.88-.99-23.74c-4.3-19.15-2.55-41.64-6.92-60.34q-0.495-9.39-.99-18.79c-6.22-27.08-4.17-57.56-10.88-85.06-5.45-22.35-4.95-47.24-10.88-70.23-4.16-16.12-4.46-34.31-8.9-51.43-15.18-58.56-21.21-119.65-37.59-177.05-19-66.61-32.81-134.18-54.4-198.81-64.64-193.54-132.17-378.75-220.57-547.96-21.82-41.77-40.34-84.38-64.29-123.64-6.71-10.99-10.13-22.64-16.81-33.63-38.38-63.08-73.59-127.82-112.76-189.9-54.03-85.64-112.62-167.85-171.12-249.26-35.89-49.93-77.01-96.16-113.74-145.393-13.77-18.454-30.55-34.826-44.51-53.411-15.63-20.793-35.65-38.421-51.44-59.346q-3.945-3.462-7.91-6.924c-28.33-37.483-67.04-67.867-94.95-104.844q-15.33-14.835-30.67-29.673c-12.36-16.344-34.09-38.1-50.44-50.444q-18.3-18.79-36.6-37.586c-21.7-16.419-38.57-37.969-60.33-54.4l-8.91-9.891c-19.04-14.409-34.53-33.207-53.41-47.477-48.43-36.6-91.46-80.663-140.45-116.713-67.53-49.693-134.27-101.765-202.77-150.343-6.5-4.616-16.5-20.675-21.76-27.695-1.92-2.569-9.04-6.622-6.92-9.891q-7.425-6.923-14.84-13.848c-10.61-16.884-21.87-28.256-32.64-45.5-6.82-10.932-19.51-18.786-26.7-29.673h1.98c17.02,11.131,46.62,12.636,68.24,20.771,27.15,10.212,52.41,21.429,77.15,30.662,23.21,8.66,44.27,13.213,66.27,24.728,12.69,6.641,25.58,16.154,37.59,23.738,19.64,12.4,39.68,22.236,59.35,34.618,14.86,9.36,29.77,20.34,44.51,29.673,51.79,32.8,102.5,64.98,152.32,99.9,60.05,42.1,118.02,87.234,177.05,130.561,57.59,42.274,109.16,92.569,166.17,135.507,5.37,4.044,9.48,10.79,14.83,14.836,23.27,17.6,43.01,38.806,66.27,56.379l8.91,9.891c23.37,17.685,41.89,40.677,65.28,58.357q8.895,9.394,17.8,18.792c30.06,22.741,58.33,56.249,85.06,83.085,30.4,30.511,64.89,59.418,91,93.964,8.23,10.885,21.44,18.793,29.67,29.669,17.79,23.5,40.54,42.68,58.36,66.27,4.61,6.11,12.21,10.73,16.82,16.82,19.25,25.45,42.08,47.6,61.32,73.19,5.02,6.68,12.77,12.12,17.8,18.79,40.77,54.03,85.35,104.35,125.62,159.25,6.21,8.46,14.71,16.14,20.77,24.73,40.34,57.08,82.43,112.9,122.65,170.12,44.86,63.82,86.81,130.65,128.58,196.83,27.03,42.81,49.54,87.14,76.17,130.56,16.53,26.98,31.88,55.88,48.46,83.09,7.09,11.63,10.73,23.97,17.81,35.6,12.8,21.08,24.98,44.26,36.59,66.27,5.87,11.13,9.31,22.9,15.83,33.63,20.71,34.09,37.86,72.3,54.4,109.79,6.19,14.05,15.5,28.35,21.76,42.53,29.6,67.11,59.71,134.28,89.02,201.78,9.76,22.47,16.14,44.71,25.72,67.26,48.94,115.29,88.59,239.02,129.57,362.01,11.77,35.32,20.21,71.39,31.65,105.83,4.87,14.69,6.03,28.68,10.88,43.52,11.24,34.44,19.65,71.49,29.67,106.83,4.39,15.45,5.27,29.36,9.89,44.51,18.81,61.58,28.02,128.9,44.51,192.87,6.97,27.02,9.16,54.24,15.83,80.12q1.485,11.37,2.97,22.75c7.8,30.31,10.21,64.55,17.8,94.95l2.97,26.7c7.05,28.98,7.99,61.91,14.83,91q2.475,23.25,4.95,46.49c7.81,33.6,6.03,71.5,13.85,105.83,3.62,15.93,1.58,32.69,4.94,47.48,3.79,16.62,1.41,33.71,4.95,49.45q5.925,79.62,11.87,159.25v17.8c2.19,9.94.74,23.7,2.96,33.63v16.82c3.63,16.48-.74,37.84,2.97,54.4v25.71c0.94,17.09,1.98,35.21,1.98,53.42v31.65c1.74,7.95.99,20.08,0.99,29.67v56.38c0,28.15,2.92,60.71-.99,87.04-2.51,16.9,2.44,37.05-.99,52.42q-1.485,55.38-2.97,110.78c-5.9,26.57,0,58.5-5.93,85.06v16.82c-3.78,16.96.01,35.69-3.96,53.41-3.38,15.09-.3,32.16-3.95,48.46-8.03,35.81-3.91,75.75-11.87,110.78l-2.97,38.58c-4.55,19.82-3.06,41.51-7.91,62.31-3.43,14.66-2.26,30.74-5.94,46.49-8.56,36.61-9.01,76.61-17.8,112.76-4.08,16.77-2.68,32.04-6.93,48.46-14.26,55.22-18.09,115.21-32.64,169.14q-3.45,19.77-6.92,39.56c-9.67,34.2-13.69,70.63-23.74,105.84-27.88,97.72-48.04,198.37-79.13,291.78-5.7,17.13-8.1,33.28-13.84,50.44-19.03,56.85-35.93,117.55-58.36,172.11-6,14.59-7.84,28.92-13.85,43.52-15.27,37.11-26.86,76-42.53,113.74-29.75,71.65-57.9,143.94-89.02,214.64-108.41,246.3-237.61,474.01-374.87,691.38-9.95,15.76-22.3,31.08-32.64,46.48-31.66,47.16-62.45,93.32-94.95,139.47-42.14,59.81-89.05,116.33-132.54,175.07-5.11,6.89-12.67,12.91-17.81,19.78-30.77,41.14-66.18,77.87-96.93,118.69-29.58,39.27-68.22,71.48-97.92,110.78-7.7,10.18-19.51,18.85-27.7,29.67q-7.41,6.93-14.83,13.85c-10.25,11.52-21.36,22.31-30.67,34.62l-52.42,51.43a238.68,238.68,0,0,1-44.51,44.51c-11.59,8.76-19.8,21.71-31.65,30.66q-7.41,7.92-14.84,15.83c-13.36,13.36-27.36,27.11-42.53,38.57q-5.43,5.94-10.88,11.87c-14.01,10.61-24.81,25.19-38.57,35.61-46.66,35.31-86.47,78.48-133.53,113.75-8.03,6.01-14.74,14.75-22.75,20.77-30.75,23.09-59.22,49.54-90.01,72.2-94.18,69.3-186.96,142.5-286.84,205.73-56.13,35.54-112.69,70.67-169.14,105.84-29.87,18.6-61.41,34.29-90.99,52.42-13.83,8.47-28.63,13.31-42.54,21.76-22.13,13.45-46.14,26.52-69.23,38.58-15.69,8.18-32.38,13.57-47.48,22.74-23.67,14.39-49.84,25.98-76.16,37.59-19.69,8.68-39.66,20.99-59.35,29.67-65.52,28.89-131.79,56.43-197.82,85.07-34.95,15.15-71.28,26.33-105.83,40.55-9.77,4.02-18.89,4.87-28.69,8.9-40.02,16.47-81.89,28.24-124.62,42.53-88.48,29.6-182.6,53.64-275.96,80.12-36.96,10.48-74.35,15.48-110.78,25.72q-19.29,3.45-38.58,6.92c-21.57,6.08-46.11,9.14-68.25,14.84-9.76,2.51-17.93,1.44-27.69,3.95-31.99,8.25-67.54,13.88-101.88,17.81q-37.575,5.925-75.17,11.87-12.36.975-24.73,1.97c-25.07,5.82-54.03,5.16-79.13,10.88l-20.77.99c-29.07,6.55-62.83,3.35-91.99,9.89l-140.45,8.91q-24.225.495-48.46,0.98c-16.73,3.68-37.467,1.98-56.384,1.98H957.453c-7.955,1.74-20.08.99-29.673,0.99H871.4c-18.71,0-42.532,2.77-59.346-.99H760.621c-14.521-3.22-31.771,1.52-47.477-1.98-6.464-1.43-17.043.73-24.727-.98-6.151-1.37-16.369.65-23.739-.99-27.819-6.2-60.406-.76-88.03-6.93H561.811c-17.754-3.97-36.884-.75-55.389-4.94-18.761-4.25-40.718-1.47-60.336-5.94-31.734-7.23-64.092-8.15-93.965-15.82l-28.684-3.96c-12.815-3.78-52.538-16.22-60.335-23.74l34.618-1.98v-0.99h0.99c5.208,2.69,11.734-1.18,17.8,0,3.44,2.99,8.065-.33,14.837.99,6.259,1.22,19.552-.35,26.706-1.97,12.907-2.94,26.564-.26,38.575-2.97h28.684c25.471-5.67,58.637,1.78,84.074-3.96q94.944-1.98,189.908-3.95c10.906-2.47,23.575-.24,35.608-2.97,27.061-6.14,57.226-3.86,83.084-9.89l23.739-1.98c13.118-3.15,27.926-3.02,41.542-6.92,18.141-5.2,29.211-9.29,41.543-12.86,11.179-3.24,25.208-5.57,31.651-8.9,6.88-3.56,14.713-1.86,21.76-4.95,15.941-7,27.466-8.7,37.586-13.85,7.35-3.74,13.96-1.56,19.78-3.95,14.25-5.86,39.16-14.39,49.46-19.79,2.44-1.27,5.16.33,5.93,0,2.66-1.11,4.26-2.86,6.93-3.95,0.99,0.33,1.97.66,2.96,0.99,10.59-6.31,24.44-8.58,36.6-13.85,6.76-2.93,18.91-10.35,25.72-11.87,0.99,0.33,1.98.66,2.96,0.99,7.3-3.9,17.79-8.56,25.72-11.87,2.39-1,4.13.39,4.95,0,27.82-13.19,63.67-24.64,86.05-38.57,5.15-3.21,14.44-3.14,17.8-4.95,13.41-7.2,30.53-14.29,40.56-20.77,3.6-2.33,13.32-3.89,14.83-4.95a122.346,122.346,0,0,1,16.82-9.89c2.08-.92,4.53.28,4.94,0,5.08-3.42,12.37-8.31,17.81-10.88,5.03-2.37,11.82-2.39,13.84-3.95,3.72-2.87,9.52-7.01,13.85-8.91l1.98,0.99c3.36-2.53,9.23-7.13,12.86-8.9,1.47-.72,6.66-0.9,9.89-2.97,9.46-6.03,22.41-12.05,33.63-18.79q5.43-1.98,10.88-3.96v-1.97c1.12-.58,5.28-0.36,7.91-1.98,10.06-6.19,34.92-22.35,42.53-22.75v-0.99c0.28-.63-0.3-0.46.99-0.99,3.18-2.38,7.33-2.78,10.88-4.94,8.21-5,17.54-10.95,25.72-15.83q3.465-.99,6.92-1.98c26.01-19.14,56.45-31.77,84.08-49.45,39.7-25.42,76.51-48.82,120.67-75.17,7.73-4.62,15.16-12.8,22.75-17.81,19.29-12.73,38.64-23.2,57.36-36.6,11.95-8.55,23.76-19.11,35.61-27.69,15.23-11.02,30.43-22.1,45.5-32.64,8.79-6.15,18.86-10.63,26.71-17.8,15.57-14.23,33.04-26.11,50.44-38.58,15.91-11.39,30.46-24.86,46.49-36.6,6.34-4.64,29.33-28.55,34.62-27.69v-0.99c-1.89-.49,16.14-13.38,20.77-16.81,5.41-4.02,9.56-10.92,14.84-14.84,14.42-10.73,28.13-21.77,41.54-33.63,77.32-68.36,153.39-139.06,224.53-213.64,27.01-28.33,55.36-56.67,79.12-88.03,8.3-10.96,21.34-19.6,29.68-30.67,6.54-8.68,12.58-17.57,19.78-25.71,16.3-18.46,34.7-36.63,49.45-56.38,17.53-23.46,37.24-44.96,54.4-68.25,12-16.28,21.75-35.06,36.6-48.47,0.31-4.4,5.15-6.66,7.91-10.88,9.08-13.85,18.39-26.35,27.7-39.56,27.43-38.9,53.69-79.18,80.12-118.69,38.4-57.43,68.45-123.04,105.83-183.97,4.57-7.46,5.58-15.96,9.89-23.74,42.87-77.3,75.01-160.05,106.83-244.31,9.2-24.38,16.83-49.73,25.71-76.16,3.71-11.05,8.47-19.23,9.89-30.66h-0.99c-0.62,1.73-.19.96-0.99,1.98v-2.97c6.65-9.19,9.62-35.8,13.85-48.47,4.85-14.51,5.89-28.21,10.88-44.51,2.57-8.37,6.26-19.11,7.92-27.69,0.42-2.23-.24-7.51.98-11.87C3091.41,6958.27,3095.22,6944.17,3096.89,6930.88ZM2732.9,138.738c1.98,1.382,2.04,1.332,2.96,3.957h-0.99C2732.37,140.154,2732.42,142.365,2732.9,138.738Zm46.48,61.324c2.37,0.833,1.63.4,2.97,1.979h0.99v0.989C2780.69,202.148,2780.78,202.013,2779.38,200.062Zm336.3,165.18c-0.33,1.369,1.4,1.435,1.98,1.978C3118.35,366.169,3115.95,365.539,3115.68,365.242Zm1.98,2275.918h63.3c9.76-.01,22.6-1.13,30.66.99,8.31,2.18,18.84-.37,25.72,1.97,2.28,0.78,10.64-2.32,14.84-.98,0.33,0.65.66,1.31,0.98,1.97,2.25,0.77,10.64-2.15,14.84-.99,10.37,2.88,23.5,1.73,35.61,4.95h8.9c10.23,2.87,23.74,2.63,35.61,5.93l13.85,0.99c10.08,3.37,28.78,4.5,40.55,8.91,2.97,1.11,5.86-1.46,9.89,0,35.06,12.66,75.31,14.79,109.79,30.66l1.98-.99c3.96,1.65,6.11,2.74,8.9,3.95,0.99-.33,1.98-0.65,2.97-0.98,4.26,2.15,12.19,5.79,14.84,6.92,1.62,0.69,5.06-.94,6.92,0,7.68,3.89,29.51,14.61,33.63,12.86,4.43,2.77,12.97,7.22,15.82,5.93,5.68,3.79,27.9,14.12,30.67,12.86,8.81,5.96,11.63,5.38,21.76,9.89,2.37,1.06,7.32,6.29,9.89,3.96,6.6,6.49,19.83,11.77,29.67,16.81,5.89,3.02,11.34,3.64,16.82,6.93,7.18,4.31,20.05,13.65,24.72,13.84,0,0,12.47,8.08,13.85,6.93,9.51,9.84,27.24,17.09,36.6,24.72,2.2,1.8,14.49,7.2,14.83,6.93,10.65,10.29,24.53,17.92,37.59,25.71,8.6,5.14,15.69,14.06,23.74,19.79,13.14,9.34,26.08,17.63,38.57,27.69,1.92,1.55,3.12,5.18,4.95,6.93,7.57,7.22,18.22,14.49,26.71,20.77,4.49,3.32,7.61,9.31,11.86,12.85,9.86,8.22,18.82,16.53,28.69,24.73,3.36,2.79,4.92,7.63,7.91,10.88,7.18,7.82,16.19,14.27,23.74,21.76,9.28,9.23,15.67,21.19,24.73,30.66,32.43,33.91,61.78,74.02,88.03,113.75,6.24,9.45,9.67,19.11,15.82,28.68,35.27,54.85,63.74,113.55,89.02,178.04,9.61,24.51,13.69,47.98,23.74,70.23q0.99,5.925,1.98,11.87c2.8,9.36,6.23,25.43,10.88,33.63q1.485,9.885,2.97,19.78c4.19,15.09,7.59,33.65,11.87,49.45q1.485,12.855,2.96,25.72c6.7,17.96,4.96,44.42,9.89,63.3l0.99,31.65c3.43,15.19-1.55,36.65,1.98,52.43,2.6,11.58,3.02,35.95,0,47.47q-0.495,25.725-.99,51.44c-1.93,8.37-.8,20.42-2.96,28.68v12.86c-4.88,16.79-5.63,47.13-10.88,66.27l-2.97,26.7c-4.74,10.16-6.66,27.66-9.89,38.58-2.05,6.91-.33,13-2.97,19.78-6.3,16.2-9.93,36.21-15.83,52.42-1.44,3.97-4.86,17.59-3.95,18.79-4.86,5.74-9.17,22.9-11.87,30.67q-0.495,3.945-.99,7.91l-1.98-.99q-1.98,8.4-3.96,16.82c-5.86,9.72-7.54,21.57-12.85,32.64-3.13,6.51-8.24,15.33-10.88,21.76-4.78,11.6-9.29,21.21-13.85,31.65q-0.99,4.44-1.98,8.9c-7.56,11.84-14.84,26.37-21.76,38.57q-1.98,5.94-3.96,11.87c-5.3,7.5-11.32,16.81-15.82,24.73-2.08,3.67-1.51,7.69-3.96,10.88-8.04,10.48-15.79,23.54-22.75,34.62-3.85,6.13-5.48,13.05-9.89,18.79-24.51,31.94-45.83,66.06-70.23,97.92-0.98.33-1.97,0.66-2.96,0.99-3.25,3.44-5.17,7.99-7.92,11.87-1.31,1.86-4.52,2.31-5.93,3.96-1.7,1.97-1.25,5.05-2.97,6.92-6.24,6.81-12.18,13.19-17.8,20.77-1.41,1.9-4.35,2.29-5.94,3.96-0.33,1.32-.66,2.64-0.98,3.95-4.27,5.86-11.68,10.66-16.82,15.83-5.95,5.98-10.4,13.27-15.83,19.78-3.4,4.1-9.16,6.97-12.85,10.88-15.75,16.7-32.12,31.31-49.46,46.49-1.99,1.74-2.76,5.28-4.94,6.92-21.08,15.87-39.62,33.95-61.33,49.46-3.54,2.53-6.37,7.34-9.89,9.89-27.32,19.79-54.5,37.6-83.08,56.38-19.96,13.11-38.85,27.23-62.32,38.57-7.66,3.7-33.7,21.21-36.6,19.78-3.44,2.57-13.81,9.53-15.82,7.92-3.61,3.38-22.93,14.14-25.72,12.86-15.41,10.57-31.12,15.21-46.49,21.76-9.77,4.16-34.76,17.93-39.56,16.81-2.18-.51-9.21,5.13-10.88,5.94-1,.48-23.74,6.92-23.74,6.92-0.96-.23-9.96,5.32-10.88,5.93l-2.97-.99c-4.92,2.02-17.34,8.99-22.75,7.92-1.4-.28-11.67,5.23-12.85,5.93-2.79,1.67-12.46,1.04-18.8,3.96-3.68,1.7-25.06,10.32-31.65,8.9-2.26-.49-20.61,6.94-23.74,7.91-8.67,2.69-18.47,4.2-23.73,5.94l-4.95-.99c-10.04,2.83-23.12,6.2-33.63,8.9-19.73,5.08-47.45,4.84-67.26,11.87-7.58,2.69-19.45-.36-29.67,1.98-9.75,2.22-37.95,7.59-47.48,3.95-9.1,4.48-22.85.33-34.62,2.97-12.11,2.72-29.2-2-42.53.99-9.24,2.07-28.38,2.41-37.59,0h-19.78c-18.33,0-38.49,1.21-54.4-2.97h-15.82c-7.59-3-21.13-2.15-31.66-4.94h-9.89l-0.99-1.98c-0.96-.33-6.2,1.99-8.9.99v-1.98c-0.34-.22-7.53,1.76-9.89.99-14.58-4.78-37.26-5.11-49.45-9.89l-17.81-1.98c-6.33-2.65-22.34-5.07-32.64-8.9-0.71-.27-2.83,1.69-4.94.99-13.39-4.48-27.41-6.96-41.55-12.86-1.44-.61-9.69-0.19-11.87-0.99-47.4-17.58-81.63-24.26-122.64-44.51-9.23-4.55-21.19-6.7-31.66-11.87-9.81-4.85-35.85-20.84-46.48-21.76-1.56,1.39-.81-1.84-0.99-1.98-2.37-1.87-10.64-5-11.87-3.95-7.95-7.97-19.7-10.74-29.67-16.82-12.89-7.85-26.16-14.94-39.57-22.75-39.07-22.75-80.97-55.05-118.69-83.08-7.66-5.69-13.98-15.34-21.76-20.77h-2.97c-1.89-1.21-2.26-4.6-3.96-5.94-22.22-17.56-46.25-36.72-63.3-59.34-6.69-8.88-17.73-15.06-24.73-23.74-11.11-13.79-23.15-26.13-33.63-40.55-3.09-4.27-8.75-7.57-11.86-11.87-43.83-60.54-89.24-122.04-123.64-191.89-16.2-32.87-27.83-68.24-44.51-100.89q-1.485-6.915-2.97-13.84c-2.8-7.57-8.44-20.57-10.88-25.72-2.25-4.75-1.2-8.85-2.97-13.85-0.36-1.01-2.66-2.45-2.96-2.97q-0.99-6.42-1.98-12.85c-2.86-9.51-5.98-23.41-10.88-31.65q-1.98-11.385-3.96-22.75c-2.82-10.24-6.84-24.56-9.89-34.62q-1.98-14.835-3.96-29.68c-7.17-18.7-5.46-42.62-10.88-63.3-2.73-10.43-.52-21.78-3.95-30.66q-0.99-24.225-1.98-48.47c-2.18-9.68-3.08-53.33-.99-61.32v-27.69c0-19.41-.25-48.63,4.94-64.3q0.495-10.875.99-21.76c4.48-18.93,3.13-34.8,7.92-52.42,2.05-7.55.94-14.33,3.95-19.78l3.96-31.65c4.7-17.83,8.57-43.01,15.83-59.35q1.965-9.885,3.95-19.78c7.07-19.46,11.32-47.75,21.76-64.29,3.58-5.67,1.52-14.07,4.95-19.78,9.07-15.1,15.44-37.23,22.75-53.41,1.61-3.57.85-7.57,2.96-10.88,5.95-9.31,10.6-21.66,15.83-31.66,1.48-2.82,4.83-10.8,3.96-11.86,4.09-4.18,8.45-12.41,10.88-17.81,1.25-2.78.33-5.41,1.97-7.91,16.51-25.12,28.17-53.65,44.51-79.13l3.96-2.97c13.33-19.83,23.14-40.92,38.58-58.35,4.53-5.12,5.87-12.22,9.89-17.81,6.09-8.46,14.62-18.06,21.76-25.71,6.75-7.23,11.11-18.34,17.8-25.72,13.06-14.41,25.69-28.82,37.59-44.51,7.54-9.94,18.31-17.16,25.71-27.69,1.13-1.6,3.59-1.62,4.95-2.97,1.64-1.63,2.32-4.3,3.96-5.94,8.9-8.94,18.67-16.88,27.69-25.71,6.16-6.04,10.91-14.58,17.8-19.78,21.02-15.86,39.31-34.25,60.34-50.45,9.23-7.11,17.55-16.5,26.71-23.74,19.35-15.31,40.69-27.66,59.34-43.52l1.98,0.99c6.12-6.48,15.3-11.82,22.75-16.81,2.16-1.45,7.66-5.19,8.9-3.96,5.82-7.27,13.46-9.21,22.75-14.84,13.12-7.94,24.85-16.02,36.6-23.73,2.9-1.91,15.74-7.84,16.81-6.93,9.69-9.67,28.13-15.16,39.57-23.74,0.34-.25,3.05,1.17,4.94,0,6.65-4.08,15.64-8.08,21.76-12.85,1.52-1.18,9.05-2.01,12.86-3.96,10.43-5.34,22.29-9.36,30.66-15.83a13.635,13.635,0,0,1,4.95,0c14.55-9.4,24.71-10.01,40.55-16.81,17.09-7.34,40.03-13.76,54.4-21.76,0,0,10.68-1.07,10.88-.99,12.35-7.1,19.29-5.18,30.67-11.87,0.98,0.33,1.97.66,2.96,0.99,5.82-3.26,23.21-7.28,29.68-9.89,3.86-1.56,20.65-4.36,21.76-3.96,5.75-2.97,29.03-9.99,34.61-7.91,15.68-8.03,44.44-7.97,61.33-13.85,2.46-.85,4.68.66,5.93,0.99,16.92-6.56,36.9-4.11,50.45-8.9h9.89c11.57-2.65,25.91-1.88,34.62-4.95,5.52-1.94,14.58-.2,16.81-0.98C3088.6,2639.79,3110.32,2645.99,3117.66,2641.16Zm-117.71,79.12c1.01,0.8.28,0.36,1.98,0.99C3000.92,2720.48,3001.66,2720.92,2999.95,2720.28Zm-169.13,37.59c1.01,0.8.27,0.35,1.98,0.99C2831.79,2758.06,2832.52,2758.51,2830.82,2757.87Zm-97.92,33.63c1.01,0.8.27,0.35,1.97,0.99C2733.86,2791.69,2734.6,2792.14,2732.9,2791.5Zm889.2,13.85c1.01,0.79.27,0.35,1.98,0.99C3623.07,2805.54,3623.81,2805.99,3622.1,2805.35Zm-1025.7,50.44-0.99,1.98C2597.14,2856.39,2596.4,2855.79,2596.4,2855.79Zm1146.37,12.86c-0.32,1.37,1.41,1.43,1.98,1.98C3745.44,2869.58,3743.04,2868.95,3742.77,2868.65Zm-1244.29,46.49-0.99,1.98C2499.21,2915.73,2498.48,2915.14,2498.48,2915.14Zm1323.42,6.92c-0.32,1.37,1.4,1.44,1.98,1.98C3824.57,2922.99,3822.17,2922.36,3821.9,2922.06Zm84.07,70.23c0.11,0.13,2.97,2.96,2.97,2.96C3909.46,2994,3906.48,2992.82,3905.97,2992.29Zm32.64,1471.77c-0.33.66-.66,1.32-0.98,1.98C3939.35,4464.66,3938.61,4464.06,3938.61,4464.06Zm-12.85,13.85-0.99,1.98C3926.49,4478.51,3925.76,4477.91,3925.76,4477.91Zm-45.5,46.49-0.99,1.98C3880.99,4524.99,3880.26,4524.4,3880.26,4524.4Zm-5.94,5.93-1.98,2.97C3872.68,4533.48,3877.03,4530.68,3874.32,4530.33Zm-1592.46,19.79c-0.32,1.37,1.41,1.43,1.98,1.97C2284.53,4551.04,2282.14,4550.41,2281.86,4550.12Zm1542.02,25.71-0.99,1.98C3824.61,4576.43,3823.88,4575.83,3823.88,4575.83ZM2321.43,4587.7c-0.33,1.37,1.4,1.44,1.98,1.98C2324.1,4588.63,2321.7,4588,2321.43,4587.7Zm29.67,25.72c-0.32,1.37,1.41,1.43,1.98,1.98C2353.77,4614.35,2351.37,4613.72,2351.1,4613.42Zm1296.72,86.05-0.99,1.98C3648.55,4700.06,3647.82,4699.47,3647.82,4699.47ZM3409.44,4805.3c1.01,0.8.27,0.35,1.98,0.99C3410.41,4805.5,3411.15,4805.94,3409.44,4805.3Zm-69.23,19.79c1.01,0.79.27,0.35,1.97,0.98C3341.17,4825.28,3341.91,4825.72,3340.21,4825.09Zm-1754.68.98h1.98v0.99h-1.98v-0.99Zm1563.78,31.66c1.01,0.79.27,0.35,1.98,0.99C3150.28,4857.92,3151.02,4858.36,3149.31,4857.73Zm-201.78,191.88h1.98v0.99h-1.98v-0.99Zm-699.3,364.98c1.01,0.79.28,0.35,1.98,0.99C2249.2,5414.78,2249.94,5415.23,2248.23,5414.59Zm12.86,9.89c1.01,0.79.27,0.35,1.98,0.99C2262.06,5424.67,2262.8,5425.12,2261.09,5424.48Zm2.97,1.98c1.44,2.1,2.6,2.75,4.95,3.95A15.952,15.952,0,0,0,2264.06,5426.46Zm17.8,12.86c-0.32,1.37,1.41,1.43,1.98,1.97C2284.53,5440.24,2282.14,5439.61,2281.86,5439.32Zm7.92,6.92c1.33,1.61.63,1.11,2.96,1.98A11.184,11.184,0,0,0,2289.78,5446.24Zm5.93,4.95c1.44,2.1,2.6,2.75,4.95,3.95A15.952,15.952,0,0,0,2295.71,5451.19Zm7.91,5.93c-0.32,1.37,1.41,1.43,1.98,1.98C2306.29,5458.05,2303.9,5457.42,2303.62,5457.12Zm116.72,4.95a25.4,25.4,0,0,0,3.96,3.95C2424.95,5465.13,2420.84,5462.43,2420.34,5462.07Zm5.93,4.94c0.11,0.13,2.97,2.97,2.97,2.97C2429.76,5468.73,2426.78,5467.54,2426.27,5467.01Zm29.68,25.72c0.1,0.13,2.96,2.96,2.96,2.96C2459.43,5494.44,2456.45,5493.26,2455.95,5492.73Zm25.71,22.75c1.27,2.05,2.06,2.27,2.97,4.94h0.99C2484.68,5517.53,2483.88,5516.95,2481.66,5515.48Zm28.69,26.7c0.46,0.8,3.81,5.46,4.94,4.95C2513.97,5546.66,2511.87,5543.17,2510.35,5542.18Zm19.78,18.79c-0.33,1.37,1.4,1.44,1.98,1.98C2532.8,5561.9,2530.4,5561.27,2530.13,5560.97Zm23.74,22.75c-0.33,1.37,1.4,1.44,1.98,1.98C2556.54,5584.65,2554.14,5584.02,2553.87,5583.72Zm29.67,29.68a25.4,25.4,0,0,0,3.96,3.95C2588.16,5616.46,2584.04,5613.76,2583.54,5613.4Zm19.78,19.78c-0.32,1.37,1.41,1.43,1.98,1.98C2605.99,5634.11,2603.6,5633.48,2603.32,5633.18Zm7.92,7.91c0.1,0.13,2.96,2.97,2.96,2.97C2614.72,5642.81,2611.74,5641.62,2611.24,5641.09Zm6.92,6.93c-0.33,1.36,1.4,1.43,1.98,1.97C2620.83,5648.94,2618.43,5648.31,2618.16,5648.02Zm-42.53,192.87c1.81,1.55,1.38.87,1.98,3.96h-0.99v-1.98C2575.82,5841.86,2576.27,5842.6,2575.63,5840.89Zm29.67,9.89c2.52,1.44,1.12-.21,1.98,2.97h-0.99v-0.99C2605.5,5851.75,2605.94,5852.49,2605.3,5850.78Zm2.97,1.98c1.04,1.42,1.54,3.88,1.98,5.93h-0.99v-0.99C2608.39,5856.42,2608.37,5855.26,2608.27,5852.76Zm1.98,6.92c0.79,1.01.35,0.27,0.99,1.98h-0.99v-1.98Zm0.99,1.98c0.79,1.01.35,0.27,0.99,1.98h-0.99v-1.98Zm22.75,0.99h1.97v0.99C2634.23,5863.02,2635,5863.45,2633.99,5862.65Zm-56.38,3.96c1.06,1.71,1.02,2.24,0,3.95v-3.95Zm491.58,1058.33c2.05,0.37,1.9.24,2.97,0.99C3070.11,6925.56,3070.26,6925.69,3069.19,6924.94Zm3.96,0.99c2.5,0.07,3.67.12,4.94,0.99C3075.59,6926.85,3074.42,6926.8,3073.15,6925.93Zm8.9,53.41h1.98v0.99C3082.29,6979.71,3083.07,6980.14,3082.05,6979.34Zm-55.39,178.04h1.98v1.98h-0.99Zm0,1.98c0.8,1.01.35,0.27,0.99,1.98h-0.99v-1.98Zm-1.98,2.97c0.8,1,.35.27,0.99,1.97h-0.99v-1.97Zm-0.99,1.97c0.87,2.07.09,2.48-.99,4.95h-0.99v-1.98A11.242,11.242,0,0,0,3023.69,7164.3Zm-2.96,4.95c1.94,4.71-6.29,13.85-8.91,17.8-4.98,7.52-7.32,14.51-11.87,22.75-3.87,7.02-11.47,13.83-15.82,20.77-3,4.78-3.29,8.81-7.91,11.87v-1.98c6.17-6.22,9.03-15.1,13.84-22.75C3000.03,7201.87,3012.3,7186.43,3020.73,7169.25Zm-46.49,74.18c0.79,1.01.35,0.27,0.99,1.98h-0.99v-1.98Zm-393.67,823.92-0.99,1.98C2581.31,8067.94,2580.57,8067.35,2580.57,8067.35Zm-122.65,134.52c-0.32.66-.65,1.32-0.98,1.98C2458.66,8202.46,2457.92,8201.87,2457.92,8201.87Zm-30.66,31.65-0.99,1.98C2428,8234.11,2427.26,8233.52,2427.26,8233.52Zm-22.75,22.75c-0.66.99-1.32,1.98-1.98,2.96C2402.87,8259.42,2407.22,8256.61,2404.51,8256.27Zm-217.6,199.8c-0.33.65-.66,1.31-0.99,1.97C2187.65,8456.66,2186.91,8456.07,2186.91,8456.07ZM1713.13,8797.3a36.184,36.184,0,0,0-2.97,2.97h0.99c1.34-1.25,1.75-1.35,3.96-1.98v-0.99h-1.98Zm-454.99,231.45c1.01,0.8.27,0.35,1.98,0.99C1259.11,9028.95,1259.85,9029.39,1258.14,9028.75Zm-430.259,65.28v1.98h0.989v-0.99h0.989C828.849,9094.23,829.588,9094.67,827.881,9094.03Zm-4.946.99c1.01,0.8.271,0.35,1.978,0.99C823.9,9095.22,824.642,9095.66,822.935,9095.02Z"/>
</svg>
